<?xml version="1.0" encoding="UTF-8" standalone="no"?>
<!-- Generator: Adobe Illustrator 16.0.3, SVG Export Plug-In . SVG Version: 6.00 Build 0)  -->

<svg
   xmlns:dc="http://purl.org/dc/elements/1.1/"
   xmlns:cc="http://creativecommons.org/ns#"
   xmlns:rdf="http://www.w3.org/1999/02/22-rdf-syntax-ns#"
   xmlns:svg="http://www.w3.org/2000/svg"
   xmlns="http://www.w3.org/2000/svg"
   xmlns:sodipodi="http://sodipodi.sourceforge.net/DTD/sodipodi-0.dtd"
   xmlns:inkscape="http://www.inkscape.org/namespaces/inkscape"
   version="1.1"
   x="0px"
   y="0px"
   width="225"
   height="380"
   viewBox="0 0 225 380"
   enable-background="new 0 0 90 380"
   xml:space="preserve"
   id="svg276"
   sodipodi:docname="CustomScale.svg"
   inkscape:version="0.92.3 (2405546, 2018-03-11)"><metadata
   id="metadata282"><rdf:RDF><cc:Work
       rdf:about=""><dc:format>image/svg+xml</dc:format><dc:type
         rdf:resource="http://purl.org/dc/dcmitype/StillImage" /><dc:title></dc:title></cc:Work></rdf:RDF></metadata><defs
   id="defs280">
	
	
	
	
	
	
	
	
	
	
	
	
	
	
	
	
<filter
   inkscape:collect="always"
   style="color-interpolation-filters:sRGB"
   id="filter877"><feBlend
     inkscape:collect="always"
     mode="multiply"
     in2="BackgroundImage"
     id="feBlend879" /></filter><filter
   inkscape:collect="always"
   style="color-interpolation-filters:sRGB"
   id="filter877-7"><feBlend
     inkscape:collect="always"
     mode="multiply"
     in2="BackgroundImage"
     id="feBlend879-2" /></filter><filter
   inkscape:collect="always"
   style="color-interpolation-filters:sRGB"
   id="filter877-7-5"><feBlend
     inkscape:collect="always"
     mode="multiply"
     in2="BackgroundImage"
     id="feBlend879-2-6" /></filter><filter
   inkscape:collect="always"
   style="color-interpolation-filters:sRGB"
   id="filter877-7-5-5"><feBlend
     inkscape:collect="always"
     mode="multiply"
     in2="BackgroundImage"
     id="feBlend879-2-6-8" /></filter><filter
   inkscape:collect="always"
   style="color-interpolation-filters:sRGB"
   id="filter877-7-5-5-7"><feBlend
     inkscape:collect="always"
     mode="multiply"
     in2="BackgroundImage"
     id="feBlend879-2-6-8-1" /></filter><filter
   inkscape:collect="always"
   style="color-interpolation-filters:sRGB"
   id="filter877-7-5-5-7-4"><feBlend
     inkscape:collect="always"
     mode="multiply"
     in2="BackgroundImage"
     id="feBlend879-2-6-8-1-1" /></filter><filter
   inkscape:collect="always"
   style="color-interpolation-filters:sRGB"
   id="filter877-7-5-5-7-4-6"><feBlend
     inkscape:collect="always"
     mode="multiply"
     in2="BackgroundImage"
     id="feBlend879-2-6-8-1-1-1" /></filter><filter
   inkscape:collect="always"
   style="color-interpolation-filters:sRGB"
   id="filter877-7-5-5-7-4-6-9"><feBlend
     inkscape:collect="always"
     mode="multiply"
     in2="BackgroundImage"
     id="feBlend879-2-6-8-1-1-1-0" /></filter><filter
   inkscape:collect="always"
   style="color-interpolation-filters:sRGB"
   id="filter877-7-5-5-7-4-6-9-8"><feBlend
     inkscape:collect="always"
     mode="multiply"
     in2="BackgroundImage"
     id="feBlend879-2-6-8-1-1-1-0-0" /></filter><filter
   inkscape:collect="always"
   style="color-interpolation-filters:sRGB"
   id="filter877-7-5-5-7-4-6-9-8-0"><feBlend
     inkscape:collect="always"
     mode="multiply"
     in2="BackgroundImage"
     id="feBlend879-2-6-8-1-1-1-0-0-5" /></filter><filter
   inkscape:collect="always"
   style="color-interpolation-filters:sRGB"
   id="filter877-7-5-5-7-4-6-9-8-0-5"><feBlend
     inkscape:collect="always"
     mode="multiply"
     in2="BackgroundImage"
     id="feBlend879-2-6-8-1-1-1-0-0-5-9" /></filter><filter
   inkscape:collect="always"
   style="color-interpolation-filters:sRGB"
   id="filter877-7-5-5-7-4-6-9-8-0-5-1"><feBlend
     inkscape:collect="always"
     mode="multiply"
     in2="BackgroundImage"
     id="feBlend879-2-6-8-1-1-1-0-0-5-9-6" /></filter></defs><sodipodi:namedview
   pagecolor="#ffffff"
   bordercolor="#666666"
   borderopacity="1"
   objecttolerance="10"
   gridtolerance="10"
   guidetolerance="10"
   inkscape:pageopacity="0"
   inkscape:pageshadow="2"
   inkscape:window-width="1920"
   inkscape:window-height="1017"
   id="namedview278"
   showgrid="true"
   inkscape:zoom="2.4842106"
   inkscape:cx="-2.1133017"
   inkscape:cy="135.42452"
   inkscape:window-x="-8"
   inkscape:window-y="-8"
   inkscape:window-maximized="1"
   inkscape:current-layer="layer7"
   inkscape:measure-start="27.3255,163.668"
   inkscape:measure-end="27.3255,27.6101"
   showguides="true"
   inkscape:snap-grids="false"><inkscape:grid
     type="xygrid"
     id="grid107" /></sodipodi:namedview>
<g
   inkscape:groupmode="layer"
   id="layer3"
   inkscape:label="Base"><g
     id="g3859"
     style="fill:#e6e6e6;fill-opacity:1"
     transform="scale(1.2527071,0.99894068)"><rect
       id="background"
       width="90"
       height="380"
       x="0"
       y="0"
       style="fill:#e6e6e6;fill-opacity:1" /><rect
       id="background-4"
       width="90"
       height="380"
       x="90"
       y="0"
       style="fill:#e6e6e6;fill-opacity:1" /></g></g><g
   inkscape:groupmode="layer"
   id="layer4"
   inkscape:label="UI"
   style="display:inline;opacity:1" /><g
   inkscape:groupmode="layer"
   id="layer5"
   inkscape:label="Color"
   style="display:inline;opacity:1"><rect
     style="display:inline;opacity:1;fill:#000000;fill-opacity:1;stroke-width:2.32056165"
     id="rect156"
     width="32.9039"
     height="35.217609"
     x="6.0063105"
     y="56.024563" /><rect
     style="opacity:1;fill:#ffffff;fill-opacity:1;stroke:none;stroke-width:1.00120831"
     id="rect149"
     width="134.77425"
     height="331.69492"
     x="85.447968"
     y="20.294134" /></g><g
   inkscape:groupmode="layer"
   id="layer1"
   inkscape:label="keys"
   style="display:none"
   sodipodi:insensitive="true"><g
     id="g3302"
     transform="translate(0,-1.0063559)"
     style="display:inline;opacity:1;stroke:none"><rect
       transform="matrix(1.0011595,0,0,1.015222,0.66781814,2.2189304)"
       y="18.734953"
       x="41.137016"
       height="27.557436"
       width="132.76128"
       id="rect875"
       style="display:inline;opacity:1;fill:#ffffff;fill-opacity:1;stroke:none;filter:url(#filter877)" /><rect
       transform="matrix(1.0011595,0,0,1.015222,0.66781814,58.172761)"
       y="18.734953"
       x="41.137016"
       height="27.557436"
       width="132.76128"
       id="rect875-9-9"
       style="display:inline;opacity:1;fill:#ffffff;fill-opacity:1;stroke:none;filter:url(#filter877-7-5)" /><rect
       transform="matrix(1.0011595,0,0,1.015222,0.66781814,114.12659)"
       y="18.734953"
       x="41.137016"
       height="27.557436"
       width="132.76128"
       id="rect875-9-9-8-5"
       style="display:inline;opacity:1;fill:#ffffff;fill-opacity:1;stroke:none;filter:url(#filter877-7-5-5-7)" /><rect
       transform="matrix(1.0011595,0,0,1.015222,0.66781814,170.08043)"
       y="18.734953"
       x="41.137016"
       height="27.557436"
       width="132.76128"
       id="rect875-9-9-8-5-5-0"
       style="display:inline;opacity:1;fill:#ffffff;fill-opacity:1;stroke:none;filter:url(#filter877-7-5-5-7-4-6)" /><rect
       transform="matrix(1.0011595,0,0,1.015222,0.66781814,198.05735)"
       y="18.734953"
       x="41.137016"
       height="27.557436"
       width="132.76128"
       id="rect875-9-9-8-5-5-0-1"
       style="display:inline;opacity:1;fill:#ffffff;fill-opacity:1;stroke:none;filter:url(#filter877-7-5-5-7-4-6-9)" /><rect
       transform="matrix(1.0011595,0,0,1.015222,0.66781814,254.01119)"
       y="18.734953"
       x="41.137016"
       height="27.557436"
       width="132.76128"
       id="rect875-9-9-8-5-5-0-1-9-1"
       style="display:inline;opacity:1;fill:#ffffff;fill-opacity:1;stroke:none;filter:url(#filter877-7-5-5-7-4-6-9-8-0)" /><rect
       transform="matrix(1.0011595,0,0,1.015222,0.66781814,309.96503)"
       y="18.734953"
       x="41.137016"
       height="27.557436"
       width="132.76128"
       id="rect875-9-9-8-5-5-0-1-9-1-1-3"
       style="display:inline;opacity:1;fill:#ffffff;fill-opacity:1;stroke:none;filter:url(#filter877-7-5-5-7-4-6-9-8-0-5-1)" /></g><g
     id="g3309"
     transform="translate(0,-1.0063559)"
     style="display:inline;opacity:1;fill:#000000;stroke:none"><rect
       transform="matrix(1.0011595,0,0,1.015222,0.66781814,30.195846)"
       y="18.734953"
       x="41.137016"
       height="27.557436"
       width="132.76128"
       id="rect875-9"
       style="display:inline;opacity:1;fill:#000000;fill-opacity:1;stroke:none;filter:url(#filter877-7)" /><rect
       transform="matrix(1.0011595,0,0,1.015222,0.66781814,86.149676)"
       y="18.734953"
       x="41.137016"
       height="27.557436"
       width="132.76128"
       id="rect875-9-9-8"
       style="display:inline;opacity:1;fill:#000000;fill-opacity:1;stroke:none;filter:url(#filter877-7-5-5)" /><rect
       transform="matrix(1.0011595,0,0,1.015222,0.66781814,142.10351)"
       y="18.734953"
       x="41.137016"
       height="27.557436"
       width="132.76128"
       id="rect875-9-9-8-5-5"
       style="display:inline;opacity:1;fill:#000000;fill-opacity:1;stroke:none;filter:url(#filter877-7-5-5-7-4)" /><rect
       transform="matrix(1.0011595,0,0,1.015222,0.66781814,226.03427)"
       y="18.734953"
       x="41.137016"
       height="27.557436"
       width="132.76128"
       id="rect875-9-9-8-5-5-0-1-9"
       style="display:inline;opacity:1;fill:#000000;fill-opacity:1;stroke:none;filter:url(#filter877-7-5-5-7-4-6-9-8)" /><rect
       transform="matrix(1.0011595,0,0,1.015222,0.66781814,281.98811)"
       y="18.734953"
       x="41.137016"
       height="27.557436"
       width="132.76128"
       id="rect875-9-9-8-5-5-0-1-9-1-1"
       style="display:inline;opacity:1;fill:#000000;fill-opacity:1;stroke:none;filter:url(#filter877-7-5-5-7-4-6-9-8-0-5)" /></g></g><g
   inkscape:groupmode="layer"
   id="layer6"
   inkscape:label="Lines"
   style="display:inline;opacity:1"><rect
     style="fill:none;fill-opacity:1;stroke:#666666;stroke-width:1.16617084"
     id="rect263"
     width="34.155045"
     height="126.51027"
     x="5.3774462"
     y="20.294134" /><rect
     style="display:inline;fill:none;fill-opacity:1;stroke:#666666;stroke-width:0.89564425"
     id="rect263-4"
     width="34.420551"
     height="74.047371"
     x="5.2721705"
     y="157.99107" /><rect
     style="display:inline;fill:none;fill-opacity:1;stroke:#666666;stroke-width:0.89056015"
     id="rect263-4-0"
     width="34.425415"
     height="73.198769"
     x="5.2760854"
     y="241.60205" /><rect
     style="display:inline;fill:none;fill-opacity:1;stroke:#666666;stroke-width:0.63696927"
     id="rect263-4-0-2"
     width="34.667435"
     height="37.185333"
     x="5.0540218"
     y="326.38916" /></g><g
   inkscape:groupmode="layer"
   id="layer7"
   inkscape:label="Text"
   style="display:inline">















































































<g
   aria-label="CustomScale"
   style="font-style:normal;font-weight:normal;font-size:40px;line-height:1.25;font-family:sans-serif;letter-spacing:0px;word-spacing:0px;fill:#000000;fill-opacity:1;stroke:none"
   id="text5048-7"><path
     d="m 61.835942,13.472441 q -0.286459,0.125 -0.520834,0.234375 -0.229166,0.109375 -0.604166,0.229166 -0.317709,0.09896 -0.692709,0.166667 -0.369791,0.07292 -0.817708,0.07292 -0.84375,0 -1.536458,-0.234375 -0.6875,-0.239584 -1.197917,-0.744792 -0.5,-0.494792 -0.78125,-1.255208 -0.28125,-0.765625 -0.28125,-1.776042 0,-0.9583334 0.270833,-1.7135418 0.270834,-0.7552083 0.78125,-1.2760417 0.494792,-0.5052083 1.192709,-0.7708333 0.703125,-0.265625 1.557291,-0.265625 0.625,0 1.244792,0.1510416 0.625,0.1510417 1.385417,0.53125 v 1.2239584 h -0.07813 q -0.640625,-0.5364583 -1.270834,-0.78125 -0.630208,-0.2447917 -1.348958,-0.2447917 -0.588542,0 -1.0625,0.1927083 -0.46875,0.1875001 -0.838542,0.5885417 -0.359375,0.390625 -0.5625,0.9895834 -0.197916,0.59375 -0.197916,1.3750001 0,0.817708 0.21875,1.40625 0.223958,0.588542 0.572916,0.958333 0.364584,0.385417 0.848959,0.572917 0.489583,0.182292 1.03125,0.182292 0.744791,0 1.395833,-0.255209 0.651042,-0.255208 1.21875,-0.765625 h 0.07292 z"
     style="font-size:10.66666698px;text-align:center;text-anchor:middle"
     id="path136" /><path
     d="m 68.049484,14.034941 h -0.979167 v -0.645834 q -0.494792,0.390625 -0.947917,0.598959 -0.453125,0.208333 -1,0.208333 -0.916667,0 -1.427083,-0.557292 Q 63.1849,13.076607 63.1849,11.993274 V 8.2172322 h 0.979167 v 3.3124998 q 0,0.442709 0.04167,0.760417 0.04167,0.3125 0.177084,0.536458 0.140625,0.229167 0.364583,0.333334 0.223958,0.104166 0.651042,0.104166 0.380208,0 0.828125,-0.197916 0.453125,-0.197917 0.84375,-0.505209 V 8.2172322 h 0.979167 z"
     style="font-size:10.66666698px;text-align:center;text-anchor:middle"
     id="path138" /><path
     d="m 74.132817,12.357857 q 0,0.796875 -0.661458,1.307292 -0.65625,0.510417 -1.796875,0.510417 -0.645833,0 -1.1875,-0.151042 -0.536458,-0.15625 -0.901042,-0.338542 v -1.098958 h 0.05208 q 0.463541,0.348958 1.03125,0.557292 0.567708,0.203125 1.088541,0.203125 0.645834,0 1.010417,-0.208334 0.364583,-0.208333 0.364583,-0.65625 0,-0.34375 -0.197916,-0.520833 -0.197917,-0.177083 -0.760417,-0.302083 -0.208333,-0.04687 -0.546875,-0.109375 -0.333333,-0.0625 -0.609375,-0.135417 -0.765625,-0.203125 -1.088542,-0.59375 -0.317708,-0.395833 -0.317708,-0.9687501 0,-0.359375 0.145833,-0.6770833 0.151042,-0.3177084 0.453125,-0.5677084 0.291667,-0.2447916 0.739584,-0.3854167 0.453125,-0.1458333 1.010416,-0.1458333 0.520834,0 1.052084,0.1302083 0.536458,0.125 0.890625,0.3072917 v 1.0468751 h -0.05208 q -0.375,-0.2760417 -0.911458,-0.4635417 -0.536458,-0.1927084 -1.052083,-0.1927084 -0.536459,0 -0.90625,0.2083334 -0.369792,0.203125 -0.369792,0.609375 0,0.3593754 0.223958,0.5416664 0.21875,0.182292 0.708334,0.296875 0.270833,0.0625 0.604166,0.125 0.338542,0.0625 0.5625,0.114584 0.682292,0.15625 1.052084,0.536458 0.369791,0.385417 0.369791,1.020833 z"
     style="font-size:10.66666698px;text-align:center;text-anchor:middle"
     id="path140" /><path
     d="m 78.559901,13.982857 q -0.276042,0.07292 -0.604167,0.119792 -0.322917,0.04687 -0.578125,0.04687 -0.890625,0 -1.354167,-0.479167 -0.463541,-0.479166 -0.463541,-1.536458 V 9.0401489 H 74.898442 V 8.2172322 h 0.661459 v -1.671875 h 0.979166 v 1.671875 h 2.020834 v 0.8229167 h -2.020834 v 2.6510421 q 0,0.458333 0.02083,0.71875 0.02083,0.255208 0.145833,0.479166 0.114583,0.208334 0.3125,0.307292 0.203125,0.09375 0.614583,0.09375 0.239584,0 0.5,-0.06771 0.260417,-0.07292 0.375,-0.119792 h 0.05208 z"
     style="font-size:10.66666698px;text-align:center;text-anchor:middle"
     id="path142" /><path
     d="m 84.705735,11.128691 q 0,1.421875 -0.729167,2.244791 -0.729167,0.822917 -1.953125,0.822917 -1.234375,0 -1.963542,-0.822917 -0.723958,-0.822916 -0.723958,-2.244791 0,-1.4218754 0.723958,-2.2447921 0.729167,-0.828125 1.963542,-0.828125 1.223958,0 1.953125,0.828125 0.729167,0.8229167 0.729167,2.2447921 z m -1.010417,0 q 0,-1.1302087 -0.442708,-1.6770838 -0.442709,-0.5520833 -1.229167,-0.5520833 -0.796875,0 -1.239583,0.5520833 -0.4375,0.5468751 -0.4375,1.6770838 0,1.09375 0.442708,1.661458 0.442708,0.5625 1.234375,0.5625 0.78125,0 1.223958,-0.557292 0.447917,-0.5625 0.447917,-1.666666 z"
     style="font-size:10.66666698px;text-align:center;text-anchor:middle"
     id="path144" /><path
     d="m 94.716151,14.034941 h -0.979167 v -3.3125 q 0,-0.375 -0.03646,-0.7239587 -0.03125,-0.3489584 -0.140625,-0.5572917 -0.119792,-0.2239584 -0.34375,-0.3385417 -0.223959,-0.1145833 -0.645834,-0.1145833 -0.411458,0 -0.822916,0.2083333 -0.411459,0.203125 -0.822917,0.5208334 0.01563,0.1197916 0.02604,0.28125 0.01042,0.1562497 0.01042,0.3124997 v 3.723959 h -0.979166 v -3.3125 q 0,-0.385417 -0.03646,-0.7291671 -0.03125,-0.3489583 -0.140625,-0.5572917 -0.119791,-0.2239583 -0.34375,-0.3333333 -0.223958,-0.1145833 -0.645833,-0.1145833 -0.401042,0 -0.807292,0.1979166 -0.401041,0.1979167 -0.802083,0.5052084 V 14.034941 H 86.226567 V 8.2172322 h 0.979167 v 0.6458334 q 0.458333,-0.3802084 0.911458,-0.5937501 0.458334,-0.2135416 0.973959,-0.2135416 0.59375,0 1.005208,0.25 0.416667,0.25 0.619792,0.6927083 0.59375,-0.5 1.083333,-0.71875 0.489583,-0.2239583 1.046875,-0.2239583 0.958333,0 1.411458,0.5833333 0.458334,0.578125 0.458334,1.6197918 z"
     style="font-size:10.66666698px;text-align:center;text-anchor:middle"
     id="path146" /><path
     d="m 102.31511,11.821399 q 0,0.453125 -0.21354,0.895833 -0.20833,0.442709 -0.58854,0.75 -0.41667,0.333334 -0.97396,0.520834 -0.552084,0.1875 -1.333334,0.1875 -0.838542,0 -1.510417,-0.15625 -0.666667,-0.15625 -1.359375,-0.463542 v -1.291667 h 0.07292 q 0.588541,0.489584 1.359375,0.755209 0.770833,0.265625 1.447917,0.265625 0.958337,0 1.489587,-0.359375 0.53645,-0.359375 0.53645,-0.958334 0,-0.515625 -0.2552,-0.760416 -0.25,-0.244792 -0.76563,-0.380209 -0.390624,-0.104166 -0.848957,-0.171875 -0.453125,-0.06771 -0.963542,-0.171875 -1.03125,-0.21875 -1.53125,-0.7447914 -0.494792,-0.53125 -0.494792,-1.3802084 0,-0.9739583 0.822917,-1.59375 0.822916,-0.625 2.088542,-0.625 0.817712,0 1.500002,0.15625 0.68229,0.15625 1.20833,0.3854166 v 1.2187501 h -0.0729 q -0.4427,-0.375 -1.16666,-0.6197917 -0.71875,-0.25 -1.473961,-0.25 -0.828125,0 -1.333333,0.34375 -0.5,0.34375 -0.5,0.8854167 0,0.484375 0.25,0.7604167 0.25,0.2760416 0.880208,0.421875 0.333334,0.072917 0.947917,0.1770833 0.614579,0.1041667 1.041669,0.2135417 0.86458,0.2291664 1.30208,0.6927084 0.4375,0.463542 0.4375,1.296875 z"
     style="font-size:10.66666698px;text-align:center;text-anchor:middle"
     id="path148" /><path
     d="m 108.19532,13.670357 q -0.48959,0.234375 -0.93229,0.364584 -0.4375,0.130208 -0.9323,0.130208 -0.63021,0 -1.15625,-0.182292 -0.52604,-0.1875 -0.90104,-0.5625 -0.38021,-0.375 -0.58854,-0.947916 -0.20833,-0.572917 -0.20833,-1.338542 0,-1.4270834 0.78125,-2.2395834 0.78645,-0.8125001 2.07291,-0.8125001 0.5,0 0.97917,0.140625 0.48438,0.1406251 0.88542,0.3437501 v 1.0885417 h -0.0521 q -0.44791,-0.3489584 -0.92708,-0.5364584 -0.47396,-0.1875 -0.92708,-0.1875 -0.83334,0 -1.31771,0.5625 -0.47917,0.5572921 -0.47917,1.6406251 0,1.052083 0.46875,1.619792 0.47396,0.5625 1.32813,0.5625 0.29687,0 0.60416,-0.07813 0.3073,-0.07813 0.55209,-0.203125 0.21354,-0.109375 0.40104,-0.229167 0.1875,-0.125 0.29687,-0.213542 h 0.0521 z"
     style="font-size:10.66666698px;text-align:center;text-anchor:middle"
     id="path150" /><path
     d="m 113.97657,14.034941 h -0.97396 v -0.619792 q -0.13021,0.08854 -0.35417,0.25 -0.21875,0.15625 -0.42708,0.25 -0.24479,0.119792 -0.5625,0.197917 -0.31771,0.08333 -0.74479,0.08333 -0.78646,0 -1.33334,-0.520833 -0.54687,-0.520834 -0.54687,-1.328125 0,-0.661459 0.28125,-1.067709 0.28646,-0.411458 0.8125,-0.645833 0.53125,-0.234375 1.27604,-0.317708 0.74479,-0.08333 1.59896,-0.125 v -0.151042 q 0,-0.3333334 -0.11979,-0.5520834 -0.11459,-0.21875 -0.33334,-0.34375 -0.20833,-0.1197917 -0.5,-0.1614584 -0.29166,-0.041667 -0.60937,-0.041667 -0.38542,0 -0.85938,0.1041666 -0.47396,0.098958 -0.97916,0.2916667 h -0.0521 V 8.3422322 q 0.28646,-0.078125 0.82813,-0.171875 0.54166,-0.09375 1.06771,-0.09375 0.61458,0 1.06771,0.1041667 0.45833,0.098958 0.79166,0.34375 0.32813,0.2395833 0.5,0.6197917 0.17188,0.3802083 0.17188,0.9427084 z m -0.97396,-1.432292 v -1.619792 q -0.44792,0.02604 -1.05729,0.07813 -0.60417,0.05208 -0.95834,0.151042 -0.42187,0.119792 -0.68229,0.375 -0.26042,0.25 -0.26042,0.692708 0,0.5 0.30209,0.755209 0.30208,0.25 0.92187,0.25 0.51563,0 0.94271,-0.197917 0.42709,-0.203125 0.79167,-0.484375 z"
     style="font-size:10.66666698px;text-align:center;text-anchor:middle"
     id="path152" /><path
     d="m 116.86198,14.034941 h -0.97916 V 5.9307738 h 0.97916 z"
     style="font-size:10.66666698px;text-align:center;text-anchor:middle"
     id="path154" /><path
     d="m 123.67969,11.227649 h -4.28646 q 0,0.536458 0.16146,0.9375 0.16146,0.395833 0.44271,0.651042 0.27083,0.25 0.64063,0.375 0.375,0.125 0.82291,0.125 0.59375,0 1.19271,-0.234375 0.60417,-0.239584 0.85938,-0.46875 h 0.0521 v 1.067708 q -0.49479,0.208333 -1.01042,0.348958 -0.51562,0.140625 -1.08333,0.140625 -1.44792,0 -2.26042,-0.78125 -0.8125,-0.786458 -0.8125,-2.229166 0,-1.4270837 0.77604,-2.2656254 0.78125,-0.8385417 2.05209,-0.8385417 1.17708,0 1.8125,0.6875 0.64062,0.6875 0.64062,1.9531251 z m -0.95312,-0.75 q -0.005,-0.7708334 -0.39063,-1.1927084 -0.38021,-0.421875 -1.16146,-0.421875 -0.78645,0 -1.2552,0.4635416 -0.46355,0.4635417 -0.52605,1.1510418 z"
     style="font-size:10.66666698px;text-align:center;text-anchor:middle"
     id="path156" /></g>




















<g
   aria-label="noobhour"
   style="font-style:normal;font-weight:normal;font-size:40px;line-height:1.25;font-family:sans-serif;letter-spacing:0px;word-spacing:0px;fill:#000000;fill-opacity:1;stroke:none"
   id="text5048"><path
     d="M 69.882817,376.22226 H 68.90365 v -3.3125 q 0,-0.40104 -0.04687,-0.75 -0.04687,-0.35417 -0.171875,-0.55208 -0.130208,-0.21875 -0.375,-0.32292 -0.244791,-0.10938 -0.635416,-0.10938 -0.401042,0 -0.838542,0.19792 -0.4375,0.19792 -0.838542,0.50521 v 4.34375 h -0.979166 v -5.81771 H 65.9974 v 0.64583 q 0.458334,-0.3802 0.947917,-0.59375 0.489583,-0.21354 1.005208,-0.21354 0.942709,0 1.4375,0.56771 0.494792,0.56771 0.494792,1.63542 z"
     style="font-size:10.66666698px;text-align:center;text-anchor:middle"
     id="path159" /><path
     d="m 76.726567,373.31601 q 0,1.42187 -0.729167,2.24479 -0.729166,0.82292 -1.953125,0.82292 -1.234375,0 -1.963541,-0.82292 -0.723959,-0.82292 -0.723959,-2.24479 0,-1.42188 0.723959,-2.24479 0.729166,-0.82813 1.963541,-0.82813 1.223959,0 1.953125,0.82813 0.729167,0.82291 0.729167,2.24479 z m -1.010417,0 q 0,-1.13021 -0.442708,-1.67708 -0.442708,-0.55209 -1.229167,-0.55209 -0.796875,0 -1.239583,0.55209 -0.4375,0.54687 -0.4375,1.67708 0,1.09375 0.442708,1.66146 0.442709,0.5625 1.234375,0.5625 0.78125,0 1.223959,-0.55729 0.447916,-0.5625 0.447916,-1.66667 z"
     style="font-size:10.66666698px;text-align:center;text-anchor:middle"
     id="path161" /><path
     d="m 83.205734,373.31601 q 0,1.42187 -0.729167,2.24479 -0.729166,0.82292 -1.953125,0.82292 -1.234375,0 -1.963541,-0.82292 -0.723959,-0.82292 -0.723959,-2.24479 0,-1.42188 0.723959,-2.24479 0.729166,-0.82813 1.963541,-0.82813 1.223959,0 1.953125,0.82813 0.729167,0.82291 0.729167,2.24479 z m -1.010417,0 q 0,-1.13021 -0.442708,-1.67708 -0.442708,-0.55209 -1.229167,-0.55209 -0.796875,0 -1.239583,0.55209 -0.4375,0.54687 -0.4375,1.67708 0,1.09375 0.442708,1.66146 0.442709,0.5625 1.234375,0.5625 0.78125,0 1.223959,-0.55729 0.447916,-0.5625 0.447916,-1.66667 z"
     style="font-size:10.66666698px;text-align:center;text-anchor:middle"
     id="path163" /><path
     d="m 89.846359,373.26913 q 0,0.72917 -0.208333,1.3125 -0.203125,0.58334 -0.552083,0.97917 -0.369792,0.41146 -0.8125,0.61979 -0.442709,0.20313 -0.973959,0.20313 -0.494791,0 -0.864583,-0.11979 -0.369792,-0.11459 -0.729167,-0.3125 l -0.0625,0.27083 h -0.916667 v -8.10417 h 0.979167 v 2.89584 q 0.411459,-0.33855 0.875,-0.55209 0.463542,-0.21875 1.041667,-0.21875 1.03125,0 1.625,0.79167 0.598958,0.79167 0.598958,2.23437 z m -1.010416,0.026 q 0,-1.04167 -0.34375,-1.57813 -0.34375,-0.54167 -1.109375,-0.54167 -0.427084,0 -0.864584,0.1875 -0.4375,0.1823 -0.8125,0.47396 v 3.33334 q 0.416667,0.1875 0.713542,0.26041 0.302083,0.0729 0.682292,0.0729 0.8125,0 1.270833,-0.53125 0.463542,-0.53646 0.463542,-1.67708 z"
     style="font-size:10.66666698px;text-align:center;text-anchor:middle"
     id="path165" /><path
     d="m 96.236985,376.22226 h -0.979167 v -3.3125 q 0,-0.40104 -0.04687,-0.75 -0.04687,-0.35417 -0.171875,-0.55208 -0.130208,-0.21875 -0.375,-0.32292 -0.244791,-0.10938 -0.635416,-0.10938 -0.401042,0 -0.838542,0.19792 -0.4375,0.19792 -0.838542,0.50521 v 4.34375 h -0.979167 v -8.10417 h 0.979167 v 2.93229 q 0.458334,-0.3802 0.947917,-0.59375 0.489583,-0.21354 1.005208,-0.21354 0.942709,0 1.4375,0.56771 0.494792,0.56771 0.494792,1.63542 z"
     style="font-size:10.66666698px;text-align:center;text-anchor:middle"
     id="path167" /><path
     d="m 103.08073,373.31601 q 0,1.42187 -0.72916,2.24479 -0.72917,0.82292 -1.95313,0.82292 -1.234372,0 -1.963539,-0.82292 -0.723958,-0.82292 -0.723958,-2.24479 0,-1.42188 0.723958,-2.24479 0.729167,-0.82813 1.963539,-0.82813 1.22396,0 1.95313,0.82813 0.72916,0.82291 0.72916,2.24479 z m -1.01041,0 q 0,-1.13021 -0.44271,-1.67708 -0.44271,-0.55209 -1.22917,-0.55209 -0.796872,0 -1.23958,0.55209 -0.4375,0.54687 -0.4375,1.67708 0,1.09375 0.442708,1.66146 0.442709,0.5625 1.234372,0.5625 0.78125,0 1.22396,-0.55729 0.44792,-0.5625 0.44792,-1.66667 z"
     style="font-size:10.66666698px;text-align:center;text-anchor:middle"
     id="path169" /><path
     d="m 109.42449,376.22226 h -0.97917 v -0.64583 q -0.49479,0.39062 -0.94792,0.59895 -0.45312,0.20834 -1,0.20834 -0.91666,0 -1.42708,-0.55729 -0.51042,-0.5625 -0.51042,-1.64584 v -3.77604 h 0.97917 v 3.3125 q 0,0.44271 0.0417,0.76042 0.0417,0.3125 0.17708,0.53646 0.14062,0.22916 0.36458,0.33333 0.22396,0.10417 0.65104,0.10417 0.38021,0 0.82813,-0.19792 0.45312,-0.19792 0.84375,-0.50521 v -4.34375 h 0.97917 z"
     style="font-size:10.66666698px;text-align:center;text-anchor:middle"
     id="path171" /><path
     d="m 114.98178,371.47226 h -0.0521 q -0.21875,-0.0521 -0.42708,-0.0729 -0.20312,-0.026 -0.48437,-0.026 -0.45313,0 -0.875,0.20313 -0.42188,0.19791 -0.8125,0.51562 v 4.13021 h -0.97917 v -5.81771 h 0.97917 v 0.85938 q 0.58333,-0.46875 1.02604,-0.66146 0.44791,-0.19792 0.91146,-0.19792 0.2552,0 0.36979,0.0156 0.11458,0.0104 0.34375,0.0469 z"
     style="font-size:10.66666698px;text-align:center;text-anchor:middle"
     id="path173" /></g>








































<g
   aria-label="in"
   style="font-style:normal;font-weight:normal;font-size:40px;line-height:1.25;font-family:sans-serif;letter-spacing:0px;word-spacing:0px;display:inline;opacity:1;fill:#000000;fill-opacity:1;stroke:none"
   id="text74"><path
     d="m 20.36755,48.846947 h -0.828125 v -0.761719 h 0.828125 z m -0.04687,5.09375 H 19.5863 v -4.363282 h 0.734375 z"
     style="font-size:8px"
     id="path176" /><path
     d="m 25.43005,53.940697 h -0.734375 v -2.484375 q 0,-0.300782 -0.03516,-0.5625 -0.03516,-0.265625 -0.128907,-0.414063 -0.09766,-0.164062 -0.28125,-0.242187 -0.183593,-0.08203 -0.476562,-0.08203 -0.300781,0 -0.628906,0.148438 -0.328125,0.148437 -0.628907,0.378906 v 3.257813 h -0.734375 v -4.363282 h 0.734375 v 0.484375 q 0.34375,-0.285156 0.710938,-0.445312 0.367187,-0.160156 0.753906,-0.160156 0.707031,0 1.078125,0.425781 0.371094,0.425781 0.371094,1.226562 z"
     style="font-size:8px"
     id="path178" /></g>









<g
   aria-label="VOct out"
   style="font-style:normal;font-weight:normal;font-size:40px;line-height:1.25;font-family:sans-serif;letter-spacing:0px;word-spacing:0px;display:inline;opacity:1;fill:#ffffff;fill-opacity:1;stroke:none"
   id="text74-6"><path
     d="M 10.392941,83.791893 8.275754,89.608299 H 7.244504 L 5.1273165,83.791893 h 0.828125 l 1.8242187,5.117188 1.8242188,-5.117188 z"
     style="font-size:8px;fill:#ffffff"
     id="path181" /><path
     d="m 15.611691,84.459862 q 0.355469,0.390625 0.542969,0.957031 0.191406,0.566406 0.191406,1.285156 0,0.71875 -0.195312,1.289063 -0.191406,0.566406 -0.539063,0.945312 -0.359375,0.394532 -0.851562,0.59375 -0.488281,0.199219 -1.117188,0.199219 -0.613281,0 -1.117187,-0.203125 -0.5,-0.203125 -0.851563,-0.589844 -0.351562,-0.386718 -0.542968,-0.949218 -0.1875,-0.5625 -0.1875,-1.285157 0,-0.710937 0.1875,-1.273437 0.1875,-0.566406 0.546875,-0.96875 0.34375,-0.382813 0.851562,-0.585938 0.511719,-0.203125 1.113281,-0.203125 0.625,0 1.121094,0.207032 0.5,0.203125 0.847656,0.582031 z m -0.07031,2.242187 q 0,-1.132812 -0.507813,-1.746093 -0.507812,-0.617188 -1.386718,-0.617188 -0.886719,0 -1.394532,0.617188 -0.503906,0.613281 -0.503906,1.746093 0,1.144532 0.515625,1.753907 0.515625,0.605468 1.382813,0.605468 0.867187,0 1.378906,-0.605468 0.515625,-0.609375 0.515625,-1.753907 z"
     style="font-size:8px;fill:#ffffff"
     id="path183" /><path
     d="m 20.740598,89.334862 q -0.367188,0.175781 -0.699219,0.273437 -0.328125,0.09766 -0.699219,0.09766 -0.472656,0 -0.867187,-0.136719 -0.394532,-0.140625 -0.675782,-0.421875 -0.285156,-0.28125 -0.441406,-0.710938 -0.15625,-0.429687 -0.15625,-1.003906 0,-1.070312 0.585938,-1.679687 0.589843,-0.609375 1.554687,-0.609375 0.375,0 0.734375,0.105468 0.363281,0.105469 0.664063,0.257813 v 0.816406 h -0.03906 q -0.335937,-0.261719 -0.695312,-0.402344 -0.355469,-0.140625 -0.695313,-0.140625 -0.625,0 -0.988281,0.421875 -0.359375,0.417969 -0.359375,1.230469 0,0.789063 0.351562,1.214844 0.355469,0.421875 0.996094,0.421875 0.222656,0 0.453125,-0.05859 0.230469,-0.05859 0.414063,-0.152344 0.160156,-0.08203 0.300781,-0.171875 0.140625,-0.09375 0.222656,-0.160156 h 0.03906 z"
     style="font-size:8px;fill:#ffffff"
     id="path185" /><path
     d="m 23.951535,89.569237 q -0.207031,0.05469 -0.453125,0.08984 -0.242187,0.03516 -0.433594,0.03516 -0.667968,0 -1.015625,-0.359375 -0.347656,-0.359375 -0.347656,-1.152344 v -2.320312 h -0.496094 v -0.617188 h 0.496094 v -1.253906 h 0.734375 v 1.253906 h 1.515625 v 0.617188 H 22.43591 v 1.988281 q 0,0.34375 0.01563,0.539062 0.01563,0.191407 0.109375,0.359375 0.08594,0.15625 0.234375,0.230469 0.152344,0.07031 0.460938,0.07031 0.179687,0 0.375,-0.05078 0.195312,-0.05469 0.28125,-0.08984 h 0.03906 z"
     style="font-size:8px;fill:#ffffff"
     id="path187" /><path
     d="m 31.37341,87.428612 q 0,1.066406 -0.546875,1.683594 -0.546875,0.617187 -1.464844,0.617187 -0.925781,0 -1.472656,-0.617187 -0.542969,-0.617188 -0.542969,-1.683594 0,-1.066406 0.542969,-1.683594 0.546875,-0.621094 1.472656,-0.621094 0.917969,0 1.464844,0.621094 0.546875,0.617188 0.546875,1.683594 z m -0.757812,0 q 0,-0.847656 -0.332032,-1.257813 -0.332031,-0.414062 -0.921875,-0.414062 -0.597656,0 -0.929687,0.414062 -0.328125,0.410157 -0.328125,1.257813 0,0.820312 0.332031,1.246094 0.332031,0.421875 0.925781,0.421875 0.585938,0 0.917969,-0.417969 0.335938,-0.421875 0.335938,-1.25 z"
     style="font-size:8px;fill:#ffffff"
     id="path189" /><path
     d="m 36.131223,89.608299 h -0.734375 v -0.484375 q -0.371094,0.292969 -0.710938,0.449219 -0.339844,0.15625 -0.75,0.15625 -0.6875,0 -1.070312,-0.417969 -0.382813,-0.421875 -0.382813,-1.234375 v -2.832031 h 0.734375 v 2.484375 q 0,0.332031 0.03125,0.570313 0.03125,0.234375 0.132813,0.402343 0.105468,0.171875 0.273437,0.25 0.167969,0.07813 0.488281,0.07813 0.285157,0 0.621094,-0.148437 0.339844,-0.148438 0.632813,-0.378906 v -3.257813 h 0.734375 z"
     style="font-size:8px;fill:#ffffff"
     id="path191" /><path
     d="m 39.84216,89.569237 q -0.207031,0.05469 -0.453125,0.08984 -0.242187,0.03516 -0.433594,0.03516 -0.667968,0 -1.015625,-0.359375 -0.347656,-0.359375 -0.347656,-1.152344 v -2.320312 h -0.496094 v -0.617188 h 0.496094 v -1.253906 h 0.734375 v 1.253906 h 1.515625 v 0.617188 h -1.515625 v 1.988281 q 0,0.34375 0.01563,0.539062 0.01563,0.191407 0.109375,0.359375 0.08594,0.15625 0.234375,0.230469 0.152344,0.07031 0.460938,0.07031 0.179687,0 0.375,-0.05078 0.195312,-0.05469 0.28125,-0.08984 h 0.03906 z"
     style="font-size:8px;fill:#ffffff"
     id="path193" /></g>









<g
   aria-label="0"
   style="font-style:normal;font-weight:normal;font-size:40px;line-height:1.25;font-family:sans-serif;letter-spacing:0px;word-spacing:0px;display:inline;opacity:1;fill:#000000;fill-opacity:1;stroke:none"
   id="text74-6-3"><path
     d="m 24.496456,128.41919 q 0,1.56641 -0.492187,2.30078 -0.488282,0.73047 -1.519532,0.73047 -1.046875,0 -1.53125,-0.74219 -0.480468,-0.74219 -0.480468,-2.28125 0,-1.55078 0.488281,-2.28906 0.488281,-0.74219 1.523437,-0.74219 1.046875,0 1.527344,0.75391 0.484375,0.75 0.484375,2.26953 z m -1.027344,1.77344 q 0.136719,-0.31641 0.183594,-0.74219 0.05078,-0.42969 0.05078,-1.03125 0,-0.59375 -0.05078,-1.03125 -0.04687,-0.4375 -0.1875,-0.74219 -0.136719,-0.30078 -0.375,-0.45312 -0.234375,-0.15235 -0.605469,-0.15235 -0.367187,0 -0.609375,0.15235 -0.238281,0.15234 -0.378906,0.46093 -0.132812,0.28907 -0.183594,0.75391 -0.04687,0.46484 -0.04687,1.01953 0,0.60938 0.04297,1.01953 0.04297,0.41016 0.183594,0.73438 0.128906,0.30469 0.363281,0.46484 0.238281,0.16016 0.628906,0.16016 0.367188,0 0.609375,-0.15235 0.242188,-0.15234 0.375,-0.46093 z"
     style="font-size:8px"
     id="path196" /></g>









<g
   aria-label="-1..1"
   style="font-style:normal;font-weight:normal;font-size:40px;line-height:1.25;font-family:sans-serif;letter-spacing:0px;word-spacing:0px;display:inline;opacity:1;fill:#000000;fill-opacity:1;stroke:none"
   id="text74-6-3-2"><path
     d="m 15.830441,135.45457 h -2.4375 v -0.70703 h 2.4375 z"
     style="font-size:8px"
     id="path199" /><path
     d="m 20.670285,137.64598 h -3.148437 v -0.59375 h 1.210937 v -3.89844 h -1.210937 v -0.53125 q 0.246093,0 0.527343,-0.0391 0.28125,-0.043 0.425782,-0.12109 0.179687,-0.0977 0.28125,-0.2461 0.105468,-0.15234 0.121093,-0.40625 h 0.605469 v 5.24219 h 1.1875 z"
     style="font-size:8px"
     id="path201" /><path
     d="m 23.451535,137.64598 h -0.933594 v -1.11328 h 0.933594 z"
     style="font-size:8px"
     id="path203" /><path
     d="m 26.357785,137.64598 h -0.933594 v -1.11328 h 0.933594 z"
     style="font-size:8px"
     id="path205" /><path
     d="m 31.576535,137.64598 h -3.148437 v -0.59375 h 1.210937 v -3.89844 h -1.210937 v -0.53125 q 0.246093,0 0.527343,-0.0391 0.28125,-0.043 0.425782,-0.12109 0.179687,-0.0977 0.28125,-0.2461 0.105468,-0.15234 0.121093,-0.40625 h 0.605469 v 5.24219 h 1.1875 z"
     style="font-size:8px"
     id="path207" /></g>









<g
   aria-label="-2..2"
   style="font-style:normal;font-weight:normal;font-size:40px;line-height:1.25;font-family:sans-serif;letter-spacing:0px;word-spacing:0px;display:inline;opacity:1;fill:#000000;fill-opacity:1;stroke:none"
   id="text74-6-3-2-2"><path
     d="m 15.664426,142.90567 h -2.4375 v -0.70703 h 2.4375 z"
     style="font-size:8px"
     id="path210" /><path
     d="m 20.836301,145.09708 h -3.9375 v -0.81641 q 0.410156,-0.35156 0.820312,-0.70312 0.414063,-0.35157 0.769532,-0.69922 0.75,-0.72657 1.027343,-1.15235 0.277344,-0.42968 0.277344,-0.92578 0,-0.45312 -0.300781,-0.70703 -0.296875,-0.25781 -0.832031,-0.25781 -0.355469,0 -0.769532,0.125 -0.414062,0.125 -0.808593,0.38281 h -0.03906 v -0.82031 q 0.277344,-0.13672 0.738281,-0.25 0.464844,-0.11328 0.898438,-0.11328 0.894531,0 1.402344,0.43359 0.507812,0.42969 0.507812,1.16797 0,0.33203 -0.08594,0.62109 -0.08203,0.28516 -0.246094,0.54297 -0.152344,0.24219 -0.359375,0.47656 -0.203125,0.23438 -0.496094,0.51954 -0.417969,0.41015 -0.863281,0.79687 -0.445313,0.38281 -0.832031,0.71094 h 3.128906 z"
     style="font-size:8px"
     id="path212" /><path
     d="M 23.28552,145.09708 H 22.351926 V 143.9838 H 23.28552 Z"
     style="font-size:8px"
     id="path214" /><path
     d="M 26.19177,145.09708 H 25.258176 V 143.9838 H 26.19177 Z"
     style="font-size:8px"
     id="path216" /><path
     d="m 31.742551,145.09708 h -3.9375 v -0.81641 q 0.410156,-0.35156 0.820312,-0.70312 0.414063,-0.35157 0.769532,-0.69922 0.75,-0.72657 1.027343,-1.15235 0.277344,-0.42968 0.277344,-0.92578 0,-0.45312 -0.300781,-0.70703 -0.296875,-0.25781 -0.832031,-0.25781 -0.355469,0 -0.769532,0.125 -0.414062,0.125 -0.808593,0.38281 h -0.03906 v -0.82031 q 0.277344,-0.13672 0.738281,-0.25 0.464844,-0.11328 0.898438,-0.11328 0.894531,0 1.402344,0.43359 0.507812,0.42969 0.507812,1.16797 0,0.33203 -0.08594,0.62109 -0.08203,0.28516 -0.246094,0.54297 -0.152344,0.24219 -0.359375,0.47656 -0.203125,0.23438 -0.496094,0.51954 -0.417969,0.41015 -0.863281,0.79687 -0.445313,0.38281 -0.832031,0.71094 h 3.128906 z"
     style="font-size:8px"
     id="path218" /></g>









<g
   aria-label="VOct in"
   style="font-style:normal;font-weight:normal;font-size:40px;line-height:1.25;font-family:sans-serif;letter-spacing:0px;word-spacing:0px;display:inline;opacity:1;fill:#000000;fill-opacity:1;stroke:none"
   id="text74-6-5"><path
     d="m 13.56091,187.59499 -2.117187,5.8164 h -1.03125 l -2.1171878,-5.8164 h 0.828125 l 1.8242188,5.11718 1.824219,-5.11718 z"
     style="font-size:8px;fill:#000000"
     id="path221" /><path
     d="m 18.77966,188.26295 q 0.355469,0.39063 0.542969,0.95704 0.191406,0.5664 0.191406,1.28515 0,0.71875 -0.195312,1.28906 -0.191407,0.56641 -0.539063,0.94532 -0.359375,0.39453 -0.851562,0.59375 -0.488282,0.19922 -1.117188,0.19922 -0.613281,0 -1.117187,-0.20313 -0.5,-0.20312 -0.851563,-0.58984 -0.351562,-0.38672 -0.542969,-0.94922 -0.1875,-0.5625 -0.1875,-1.28516 0,-0.71094 0.1875,-1.27344 0.1875,-0.5664 0.546875,-0.96875 0.34375,-0.38281 0.851563,-0.58593 0.511719,-0.20313 1.113281,-0.20313 0.625,0 1.121094,0.20703 0.5,0.20313 0.847656,0.58203 z m -0.07031,2.24219 q 0,-1.13281 -0.507813,-1.74609 -0.507812,-0.61719 -1.386719,-0.61719 -0.886718,0 -1.394531,0.61719 -0.503906,0.61328 -0.503906,1.74609 0,1.14453 0.515625,1.75391 0.515625,0.60547 1.382812,0.60547 0.867188,0 1.378907,-0.60547 0.515625,-0.60938 0.515625,-1.75391 z"
     style="font-size:8px;fill:#000000"
     id="path223" /><path
     d="m 23.908566,193.13795 q -0.367187,0.17579 -0.699218,0.27344 -0.328125,0.0977 -0.699219,0.0977 -0.472656,0 -0.867188,-0.13672 -0.394531,-0.14063 -0.675781,-0.42188 -0.285156,-0.28125 -0.441406,-0.71093 -0.15625,-0.42969 -0.15625,-1.00391 0,-1.07031 0.585937,-1.67969 0.589844,-0.60937 1.554688,-0.60937 0.375,0 0.734375,0.10547 0.363281,0.10547 0.664062,0.25781 v 0.81641 h -0.03906 q -0.335938,-0.26172 -0.695313,-0.40235 -0.355468,-0.14062 -0.695312,-0.14062 -0.625,0 -0.988281,0.42187 -0.359375,0.41797 -0.359375,1.23047 0,0.78906 0.351562,1.21484 0.355469,0.42188 0.996094,0.42188 0.222656,0 0.453125,-0.0586 0.230469,-0.0586 0.414062,-0.15235 0.160157,-0.082 0.300782,-0.17187 0.140625,-0.0937 0.222656,-0.16016 h 0.03906 z"
     style="font-size:8px;fill:#000000"
     id="path225" /><path
     d="m 27.119504,193.37233 q -0.207031,0.0547 -0.453125,0.0898 -0.242188,0.0352 -0.433594,0.0352 -0.667969,0 -1.015625,-0.35938 -0.347656,-0.35937 -0.347656,-1.15234 V 189.6653 H 24.37341 v -0.61719 h 0.496094 v -1.25391 h 0.734375 v 1.25391 h 1.515625 v 0.61719 h -1.515625 v 1.98828 q 0,0.34375 0.01563,0.53906 0.01563,0.19141 0.109375,0.35938 0.08594,0.15625 0.234375,0.23047 0.152344,0.0703 0.460937,0.0703 0.179688,0 0.375,-0.0508 0.195313,-0.0547 0.28125,-0.0899 h 0.03906 z"
     style="font-size:8px;fill:#000000"
     id="path227" /><path
     d="m 31.611691,188.31764 h -0.828125 v -0.76172 h 0.828125 z m -0.04687,5.09375 h -0.734375 v -4.36328 h 0.734375 z"
     style="font-size:8px;fill:#000000"
     id="path229" /><path
     d="m 36.674191,193.41139 h -0.734375 v -2.48437 q 0,-0.30078 -0.03516,-0.5625 -0.03516,-0.26563 -0.128906,-0.41407 -0.09766,-0.16406 -0.28125,-0.24218 -0.183594,-0.082 -0.476563,-0.082 -0.300781,0 -0.628906,0.14843 -0.328125,0.14844 -0.628906,0.37891 v 3.25781 h -0.734375 v -4.36328 h 0.734375 v 0.48438 q 0.34375,-0.28516 0.710937,-0.44532 0.367188,-0.16015 0.753907,-0.16015 0.707031,0 1.078125,0.42578 0.371093,0.42578 0.371093,1.22656 z"
     style="font-size:8px;fill:#000000"
     id="path231" /></g>









<g
   aria-label="toggle"
   style="font-style:normal;font-weight:normal;font-size:40px;line-height:1.25;font-family:sans-serif;letter-spacing:0px;word-spacing:0px;display:inline;opacity:1;fill:#000000;fill-opacity:1;stroke:none"
   id="text74-6-5-9"><path
     d="m 13.070676,229.29924 q -0.207031,0.0547 -0.453125,0.0898 -0.242188,0.0352 -0.433594,0.0352 -0.667969,0 -1.015625,-0.35937 -0.347656,-0.35938 -0.347656,-1.15235 v -2.32031 h -0.496094 v -0.61719 h 0.496094 v -1.2539 h 0.734375 v 1.2539 h 1.515625 v 0.61719 h -1.515625 v 1.98828 q 0,0.34375 0.01563,0.53906 0.01563,0.19141 0.109375,0.35938 0.08594,0.15625 0.234375,0.23047 0.152344,0.0703 0.460937,0.0703 0.179688,0 0.375,-0.0508 0.195313,-0.0547 0.28125,-0.0898 h 0.03906 z"
     style="font-size:8px;fill:#000000"
     id="path235" /><path
     d="m 17.680051,227.15862 q 0,1.0664 -0.546875,1.68359 -0.546875,0.61719 -1.464844,0.61719 -0.925781,0 -1.472656,-0.61719 -0.542969,-0.61719 -0.542969,-1.68359 0,-1.06641 0.542969,-1.6836 0.546875,-0.62109 1.472656,-0.62109 0.917969,0 1.464844,0.62109 0.546875,0.61719 0.546875,1.6836 z m -0.757813,0 q 0,-0.84766 -0.332031,-1.25782 -0.332031,-0.41406 -0.921875,-0.41406 -0.597656,0 -0.929687,0.41406 -0.328125,0.41016 -0.328125,1.25782 0,0.82031 0.332031,1.24609 0.332031,0.42187 0.925781,0.42187 0.585938,0 0.917969,-0.41796 0.335937,-0.42188 0.335937,-1.25 z"
     style="font-size:8px;fill:#000000"
     id="path237" /><path
     d="m 22.359738,228.84221 q 0,1.10937 -0.503906,1.62891 -0.503906,0.51953 -1.550781,0.51953 -0.347656,0 -0.679688,-0.0508 -0.328125,-0.0469 -0.648437,-0.13672 v -0.75 h 0.03906 q 0.179688,0.0703 0.570313,0.17187 0.390625,0.10547 0.78125,0.10547 0.375,0 0.621094,-0.0898 0.246093,-0.0898 0.382812,-0.25 0.136719,-0.15235 0.195313,-0.36719 0.05859,-0.21484 0.05859,-0.48047 v -0.39844 q -0.332031,0.26563 -0.636718,0.39844 -0.300782,0.12891 -0.769532,0.12891 -0.78125,0 -1.242187,-0.5625 -0.457031,-0.56641 -0.457031,-1.59375 0,-0.5625 0.15625,-0.96875 0.160156,-0.41016 0.433593,-0.70703 0.253907,-0.27735 0.617188,-0.42969 0.363281,-0.15625 0.722656,-0.15625 0.378906,0 0.632813,0.0781 0.257812,0.0742 0.542968,0.23047 l 0.04687,-0.1875 h 0.6875 z m -0.734375,-0.70313 v -2.3789 q -0.292968,-0.13281 -0.546875,-0.1875 -0.25,-0.0586 -0.5,-0.0586 -0.605468,0 -0.953125,0.40625 -0.347656,0.40625 -0.347656,1.17969 0,0.73438 0.257813,1.11328 0.257812,0.37891 0.855468,0.37891 0.320313,0 0.640625,-0.12109 0.324219,-0.125 0.59375,-0.33204 z"
     style="font-size:8px;fill:#000000"
     id="path239" /><path
     d="m 27.344113,228.84221 q 0,1.10937 -0.503906,1.62891 -0.503906,0.51953 -1.550781,0.51953 -0.347656,0 -0.679688,-0.0508 -0.328125,-0.0469 -0.648437,-0.13672 v -0.75 h 0.03906 q 0.179688,0.0703 0.570313,0.17187 0.390625,0.10547 0.78125,0.10547 0.375,0 0.621094,-0.0898 0.246093,-0.0898 0.382812,-0.25 0.136719,-0.15235 0.195313,-0.36719 0.05859,-0.21484 0.05859,-0.48047 v -0.39844 q -0.332031,0.26563 -0.636718,0.39844 -0.300782,0.12891 -0.769532,0.12891 -0.78125,0 -1.242187,-0.5625 -0.457031,-0.56641 -0.457031,-1.59375 0,-0.5625 0.15625,-0.96875 0.160156,-0.41016 0.433593,-0.70703 0.253907,-0.27735 0.617188,-0.42969 0.363281,-0.15625 0.722656,-0.15625 0.378906,0 0.632813,0.0781 0.257812,0.0742 0.542968,0.23047 l 0.04687,-0.1875 h 0.6875 z m -0.734375,-0.70313 v -2.3789 q -0.292968,-0.13281 -0.546875,-0.1875 -0.25,-0.0586 -0.5,-0.0586 -0.605468,0 -0.953125,0.40625 -0.347656,0.40625 -0.347656,1.17969 0,0.73438 0.257813,1.11328 0.257812,0.37891 0.855468,0.37891 0.320313,0 0.640625,-0.12109 0.324219,-0.125 0.59375,-0.33204 z"
     style="font-size:8px;fill:#000000"
     id="path241" /><path
     d="m 29.531613,229.3383 h -0.734375 v -6.07812 h 0.734375 z"
     style="font-size:8px;fill:#000000"
     id="path243" /><path
     d="m 34.644895,227.23283 h -3.214844 q 0,0.40235 0.121094,0.70313 0.121093,0.29687 0.332031,0.48828 0.203125,0.1875 0.480469,0.28125 0.28125,0.0937 0.617187,0.0937 0.445313,0 0.894531,-0.17578 0.453125,-0.17969 0.644532,-0.35156 h 0.03906 v 0.80078 q -0.371094,0.15625 -0.757812,0.26172 -0.386719,0.10547 -0.8125,0.10547 -1.085938,0 -1.695313,-0.58594 -0.609375,-0.58985 -0.609375,-1.67188 0,-1.07031 0.582031,-1.69922 0.585938,-0.6289 1.539063,-0.6289 0.882812,0 1.359375,0.51562 0.480469,0.51563 0.480469,1.46485 z m -0.714844,-0.5625 q -0.0039,-0.57812 -0.292969,-0.89453 -0.285156,-0.3164 -0.871094,-0.3164 -0.589843,0 -0.941406,0.34765 -0.347656,0.34766 -0.394531,0.86328 z"
     style="font-size:8px;fill:#000000"
     id="path245" /></g>









<g
   aria-label="rnd"
   style="font-style:normal;font-weight:normal;font-size:40px;line-height:1.25;font-family:sans-serif;letter-spacing:0px;word-spacing:0px;display:inline;opacity:1;fill:#000000;fill-opacity:1;stroke:none"
   id="text74-6-5-9-4"><path
     d="m 19.195676,271.97665 h -0.03906 q -0.164062,-0.0391 -0.320312,-0.0547 -0.152344,-0.0195 -0.363281,-0.0195 -0.339844,0 -0.65625,0.15234 -0.316407,0.14844 -0.609375,0.38672 v 3.09765 H 16.47302 v -4.36328 h 0.734375 v 0.64453 q 0.4375,-0.35156 0.769531,-0.49609 0.335937,-0.14844 0.683594,-0.14844 0.191406,0 0.277343,0.0117 0.08594,0.008 0.257813,0.0352 z"
     style="font-size:8px;fill:#000000"
     id="path249" /><path
     d="m 23.543332,275.53915 h -0.734375 v -2.48437 q 0,-0.30078 -0.03516,-0.5625 -0.03516,-0.26563 -0.128906,-0.41406 -0.09766,-0.16407 -0.28125,-0.24219 -0.183594,-0.082 -0.476563,-0.082 -0.300781,0 -0.628906,0.14844 -0.328125,0.14843 -0.628906,0.3789 v 3.25781 h -0.734375 v -4.36328 h 0.734375 v 0.48438 q 0.34375,-0.28516 0.710937,-0.44531 0.367188,-0.16016 0.753906,-0.16016 0.707032,0 1.078125,0.42578 0.371094,0.42578 0.371094,1.22656 z"
     style="font-size:8px;fill:#000000"
     id="path251" /><path
     d="m 28.496457,275.53915 h -0.734375 v -0.45703 q -0.316406,0.27344 -0.660156,0.42578 -0.34375,0.15235 -0.746094,0.15235 -0.78125,0 -1.242187,-0.60156 -0.457032,-0.60157 -0.457032,-1.66797 0,-0.55469 0.15625,-0.98828 0.160157,-0.4336 0.429688,-0.73829 0.265625,-0.29687 0.617187,-0.45312 0.355469,-0.15625 0.734375,-0.15625 0.34375,0 0.609375,0.0742 0.265625,0.0703 0.558594,0.22265 v -1.89062 h 0.734375 z m -0.734375,-1.07421 v -2.50391 q -0.296875,-0.13281 -0.53125,-0.18359 -0.234375,-0.0508 -0.511719,-0.0508 -0.617187,0 -0.960937,0.42969 -0.34375,0.42969 -0.34375,1.21875 0,0.77735 0.265625,1.1836 0.265625,0.40234 0.851562,0.40234 0.3125,0 0.632813,-0.13672 0.320312,-0.14062 0.597656,-0.35937 z"
     style="font-size:8px;fill:#000000"
     id="path253" /></g>









<g
   aria-label="p"
   style="font-style:normal;font-weight:normal;font-size:40px;line-height:1.25;font-family:sans-serif;letter-spacing:0px;word-spacing:0px;display:inline;opacity:1;fill:#000000;fill-opacity:1;stroke:none"
   id="text74-6-5-9-4-1"><path
     d="m 24.404659,309.69543 q 0,0.53125 -0.152343,0.97266 -0.152344,0.4375 -0.429688,0.74219 -0.257812,0.28906 -0.609375,0.44922 -0.347656,0.15625 -0.738281,0.15625 -0.339844,0 -0.617188,-0.0742 -0.273437,-0.0742 -0.558593,-0.23047 v 1.82812 h -0.734375 v -5.97265 h 0.734375 v 0.45703 q 0.292968,-0.24609 0.65625,-0.41016 0.367187,-0.16797 0.78125,-0.16797 0.789062,0 1.226562,0.59766 0.441406,0.59375 0.441406,1.65234 z m -0.757812,0.0195 q 0,-0.78907 -0.269531,-1.17969 -0.269532,-0.39063 -0.828125,-0.39063 -0.316407,0 -0.636719,0.13672 -0.320313,0.13672 -0.613281,0.35938 v 2.47265 q 0.3125,0.14063 0.535156,0.19141 0.226562,0.0508 0.511719,0.0508 0.613281,0 0.957031,-0.41406 0.34375,-0.41406 0.34375,-1.22656 z"
     style="font-size:8px;fill:#000000"
     id="path257" /></g>









<g
   aria-label="reset"
   style="font-style:normal;font-weight:normal;font-size:40px;line-height:1.25;font-family:sans-serif;letter-spacing:0px;word-spacing:0px;display:inline;opacity:1;fill:#000000;fill-opacity:1;stroke:none"
   id="text74-6-5-9-4-1-5"><path
     d="m 15.512082,358.75424 h -0.03906 q -0.164063,-0.0391 -0.320313,-0.0547 -0.152344,-0.0195 -0.363281,-0.0195 -0.339844,0 -0.65625,0.15235 -0.316406,0.14843 -0.609375,0.38672 v 3.09765 h -0.734375 v -4.36328 h 0.734375 v 0.64453 q 0.4375,-0.35156 0.769531,-0.49609 0.335938,-0.14844 0.683594,-0.14844 0.191406,0 0.277344,0.0117 0.08594,0.008 0.257812,0.0352 z"
     style="font-size:8px;fill:#000000"
     id="path260" /><path
     d="m 19.863645,360.21127 h -3.214844 q 0,0.40235 0.121094,0.70313 0.121093,0.29687 0.332031,0.48828 0.203125,0.1875 0.480469,0.28125 0.28125,0.0937 0.617187,0.0937 0.445313,0 0.894531,-0.17578 0.453125,-0.17969 0.644532,-0.35156 h 0.03906 v 0.80078 q -0.371094,0.15625 -0.757812,0.26172 -0.386719,0.10546 -0.8125,0.10546 -1.085938,0 -1.695313,-0.58593 -0.609375,-0.58985 -0.609375,-1.67188 0,-1.07031 0.582031,-1.69922 0.585938,-0.6289 1.539063,-0.6289 0.882812,0 1.359375,0.51562 0.480469,0.51563 0.480469,1.46485 z m -0.714844,-0.5625 q -0.0039,-0.57812 -0.292969,-0.89453 -0.285156,-0.3164 -0.871094,-0.3164 -0.589843,0 -0.941406,0.34765 -0.347656,0.34766 -0.394531,0.86328 z"
     style="font-size:8px;fill:#000000"
     id="path262" /><path
     d="m 24.094113,361.05893 q 0,0.59766 -0.496093,0.98047 -0.492188,0.38281 -1.347657,0.38281 -0.484375,0 -0.890625,-0.11328 -0.402343,-0.11719 -0.675781,-0.25391 v -0.82422 h 0.03906 q 0.347656,0.26172 0.773437,0.41797 0.425781,0.15235 0.816406,0.15235 0.484375,0 0.757813,-0.15625 0.273437,-0.15625 0.273437,-0.49219 0,-0.25781 -0.148437,-0.39063 -0.148438,-0.13281 -0.570313,-0.22656 -0.15625,-0.0351 -0.410156,-0.082 -0.25,-0.0469 -0.457031,-0.10156 -0.574219,-0.15235 -0.816406,-0.44531 -0.238282,-0.29688 -0.238282,-0.72657 0,-0.26953 0.109375,-0.50781 0.113282,-0.23828 0.339844,-0.42578 0.21875,-0.18359 0.554688,-0.28906 0.339843,-0.10938 0.757812,-0.10938 0.390625,0 0.789063,0.0977 0.402343,0.0937 0.667968,0.23047 v 0.78515 h -0.03906 q -0.28125,-0.20703 -0.683594,-0.34765 -0.402344,-0.14453 -0.789062,-0.14453 -0.402344,0 -0.679688,0.15625 -0.277344,0.15234 -0.277344,0.45703 0,0.26953 0.167969,0.40625 0.164063,0.13672 0.53125,0.22265 0.203125,0.0469 0.453125,0.0937 0.253906,0.0469 0.421875,0.0859 0.511719,0.11719 0.789063,0.40234 0.277343,0.28907 0.277343,0.76563 z"
     style="font-size:8px;fill:#000000"
     id="path264" /><path
     d="m 28.801145,360.21127 h -3.214844 q 0,0.40235 0.121094,0.70313 0.121093,0.29687 0.332031,0.48828 0.203125,0.1875 0.480469,0.28125 0.28125,0.0937 0.617187,0.0937 0.445313,0 0.894531,-0.17578 0.453125,-0.17969 0.644532,-0.35156 h 0.03906 v 0.80078 q -0.371094,0.15625 -0.757812,0.26172 -0.386719,0.10546 -0.8125,0.10546 -1.085938,0 -1.695313,-0.58593 -0.609375,-0.58985 -0.609375,-1.67188 0,-1.07031 0.582031,-1.69922 0.585938,-0.6289 1.539063,-0.6289 0.882812,0 1.359375,0.51562 0.480469,0.51563 0.480469,1.46485 z m -0.714844,-0.5625 q -0.0039,-0.57812 -0.292969,-0.89453 -0.285156,-0.3164 -0.871094,-0.3164 -0.589843,0 -0.941406,0.34765 -0.347656,0.34766 -0.394531,0.86328 z"
     style="font-size:8px;fill:#000000"
     id="path266" /><path
     d="m 32.180051,362.27768 q -0.207031,0.0547 -0.453125,0.0898 -0.242188,0.0352 -0.433594,0.0352 -0.667969,0 -1.015625,-0.35938 -0.347656,-0.35937 -0.347656,-1.15234 v -2.32031 h -0.496094 v -0.61719 h 0.496094 v -1.25391 h 0.734375 v 1.25391 h 1.515625 v 0.61719 h -1.515625 v 1.98828 q 0,0.34375 0.01563,0.53906 0.01563,0.19141 0.109375,0.35938 0.08594,0.15625 0.234375,0.23047 0.152344,0.0703 0.460937,0.0703 0.179688,0 0.375,-0.0508 0.195313,-0.0547 0.28125,-0.0899 h 0.03906 z"
     style="font-size:8px;fill:#000000"
     id="path268" /></g>









<g
   aria-label="-2"
   style="font-style:normal;font-weight:normal;font-size:40px;line-height:1.25;font-family:sans-serif;letter-spacing:0px;word-spacing:0px;display:inline;opacity:1;fill:#000000;fill-opacity:1;stroke:none"
   id="text74-6-5-9-4-1-5-4"><path
     d="m 52.879326,360.33823 h -2.4375 v -0.70703 h 2.4375 z"
     style="font-size:8px;fill:#000000"
     id="path271" /><path
     d="m 58.051201,362.52963 h -3.9375 v -0.8164 q 0.410156,-0.35157 0.820312,-0.70313 0.414063,-0.35156 0.769532,-0.69922 0.75,-0.72656 1.027343,-1.15234 0.277344,-0.42969 0.277344,-0.92578 0,-0.45313 -0.300781,-0.70703 -0.296875,-0.25782 -0.832031,-0.25782 -0.355469,0 -0.769532,0.125 -0.414062,0.125 -0.808593,0.38282 h -0.03906 v -0.82032 q 0.277344,-0.13671 0.738281,-0.25 0.464844,-0.11328 0.898438,-0.11328 0.894531,0 1.402344,0.4336 0.507812,0.42968 0.507812,1.16797 0,0.33203 -0.08594,0.62109 -0.08203,0.28516 -0.246094,0.54297 -0.152344,0.24219 -0.359375,0.47656 -0.203125,0.23438 -0.496094,0.51953 -0.417969,0.41016 -0.863281,0.79688 -0.445313,0.38281 -0.832031,0.71093 h 3.128906 z"
     style="font-size:8px;fill:#000000"
     id="path273" /></g>









<g
   aria-label="-1"
   style="font-style:normal;font-weight:normal;font-size:40px;line-height:1.25;font-family:sans-serif;letter-spacing:0px;word-spacing:0px;display:inline;opacity:1;fill:#000000;fill-opacity:1;stroke:none"
   id="text74-6-5-9-4-1-5-4-4"><path
     d="m 79.946365,360.28745 h -2.4375 v -0.70704 h 2.4375 z"
     style="font-size:8px;fill:#000000"
     id="path276" /><path
     d="m 84.786209,362.47885 h -3.148437 v -0.59375 h 1.210937 v -3.89844 h -1.210937 v -0.53125 q 0.246093,0 0.527343,-0.0391 0.28125,-0.043 0.425782,-0.12109 0.179687,-0.0977 0.28125,-0.2461 0.105468,-0.15234 0.121093,-0.40625 h 0.605469 v 5.24219 h 1.1875 z"
     style="font-size:8px;fill:#000000"
     id="path278" /></g>









<g
   aria-label="0"
   style="font-style:normal;font-weight:normal;font-size:40px;line-height:1.25;font-family:sans-serif;letter-spacing:0px;word-spacing:0px;display:inline;opacity:1;fill:#000000;fill-opacity:1;stroke:none"
   id="text74-6-5-9-4-1-5-4-4-3"><path
     d="m 110.11571,359.55698 q 0,1.5664 -0.49219,2.30078 -0.48828,0.73047 -1.51953,0.73047 -1.04688,0 -1.53125,-0.74219 -0.48047,-0.74219 -0.48047,-2.28125 0,-1.55078 0.48828,-2.28906 0.48828,-0.74219 1.52344,-0.74219 1.04687,0 1.52734,0.75391 0.48438,0.75 0.48438,2.26953 z m -1.02735,1.77343 q 0.13672,-0.3164 0.1836,-0.74218 0.0508,-0.42969 0.0508,-1.03125 0,-0.59375 -0.0508,-1.03125 -0.0469,-0.4375 -0.1875,-0.74219 -0.13672,-0.30078 -0.375,-0.45313 -0.23438,-0.15234 -0.60547,-0.15234 -0.36719,0 -0.60938,0.15234 -0.23828,0.15235 -0.3789,0.46094 -0.13282,0.28906 -0.1836,0.75391 -0.0469,0.46484 -0.0469,1.01953 0,0.60937 0.043,1.01953 0.043,0.41016 0.18359,0.73438 0.12891,0.30468 0.36328,0.46484 0.23828,0.16016 0.62891,0.16016 0.36719,0 0.60937,-0.15235 0.24219,-0.15234 0.375,-0.46094 z"
     style="font-size:8px;fill:#000000"
     id="path281" /></g>









<g
   aria-label="1"
   style="font-style:normal;font-weight:normal;font-size:40px;line-height:1.25;font-family:sans-serif;letter-spacing:0px;word-spacing:0px;display:inline;opacity:1;fill:#000000;fill-opacity:1;stroke:none"
   id="text74-6-5-9-4-1-5-4-4-3-8"><path
     d="m 136.63983,362.47885 h -3.14844 v -0.59375 h 1.21094 v -3.89844 h -1.21094 v -0.53125 q 0.2461,0 0.52735,-0.0391 0.28125,-0.043 0.42578,-0.12109 0.17969,-0.0977 0.28125,-0.2461 0.10547,-0.15234 0.12109,-0.40625 h 0.60547 v 5.24219 h 1.1875 z"
     style="font-size:8px;fill:#000000"
     id="path284" /></g>









<g
   aria-label="2"
   style="font-style:normal;font-weight:normal;font-size:40px;line-height:1.25;font-family:sans-serif;letter-spacing:0px;word-spacing:0px;display:inline;opacity:1;fill:#000000;fill-opacity:1;stroke:none"
   id="text74-6-5-9-4-1-5-4-4-3-8-8"><path
     d="m 164.13081,362.52963 h -3.9375 v -0.8164 q 0.41016,-0.35157 0.82032,-0.70313 0.41406,-0.35156 0.76953,-0.69922 0.75,-0.72656 1.02734,-1.15234 0.27734,-0.42969 0.27734,-0.92578 0,-0.45313 -0.30078,-0.70703 -0.29687,-0.25782 -0.83203,-0.25782 -0.35547,0 -0.76953,0.125 -0.41406,0.125 -0.80859,0.38282 h -0.0391 v -0.82032 q 0.27735,-0.13671 0.73829,-0.25 0.46484,-0.11328 0.89843,-0.11328 0.89453,0 1.40235,0.4336 0.50781,0.42968 0.50781,1.16797 0,0.33203 -0.0859,0.62109 -0.082,0.28516 -0.24609,0.54297 -0.15235,0.24219 -0.35938,0.47656 -0.20312,0.23438 -0.49609,0.51953 -0.41797,0.41016 -0.86328,0.79688 -0.44531,0.38281 -0.83203,0.71093 h 3.1289 z"
     style="font-size:8px;fill:#000000"
     id="path287" /></g>









</g>
<g
   id="decoupe"
   display="none"
   style="display:none">
	
		<path
   display="inline"
   stroke-miterlimit="10"
   d="m 17.448,371.129 c 0,2.612 2.118,4.73 4.731,4.73 2.612,0 4.731,-2.118 4.731,-4.73 0,-2.612 -2.119,-4.73 -4.731,-4.73 -2.613,-10e-4 -4.731,2.118 -4.731,4.73"
   id="path226"
   inkscape:connector-curvature="0"
   style="display:inline;fill:none;stroke:#ec1c24;stroke-width:0.28349999;stroke-linecap:round;stroke-linejoin:round;stroke-miterlimit:10" />
	
		<path
   display="inline"
   stroke-miterlimit="10"
   d="m 17.448,8.873 c 0,2.612 2.118,4.73 4.731,4.73 2.612,0 4.731,-2.118 4.731,-4.73 0,-2.614 -2.119,-4.731 -4.731,-4.731 -2.613,0 -4.731,2.116 -4.731,4.731"
   id="path228"
   inkscape:connector-curvature="0"
   style="display:inline;fill:none;stroke:#ec1c24;stroke-width:0.28349999;stroke-linecap:round;stroke-linejoin:round;stroke-miterlimit:10" />
	
		<polyline
   display="inline"
   stroke-miterlimit="10"
   points="   0,380 0,0 88.716,0 88.716,380 0,380  "
   id="polyline230"
   style="display:inline;fill:none;stroke:#ec1c24;stroke-width:0.28349999;stroke-linecap:round;stroke-linejoin:round;stroke-miterlimit:10" />
	
		<path
   display="inline"
   stroke-miterlimit="10"
   d="m 11.568,328.516 c 0,5.144 4.171,9.314 9.314,9.314 5.145,0 9.316,-4.171 9.316,-9.314 0,-5.145 -4.171,-9.315 -9.316,-9.315 -5.143,-0.001 -9.314,4.17 -9.314,9.315"
   id="path232"
   inkscape:connector-curvature="0"
   style="display:inline;fill:none;stroke:#ec1c24;stroke-width:0.28349999;stroke-linecap:round;stroke-linejoin:round;stroke-miterlimit:10" />
	
		<path
   display="inline"
   stroke-miterlimit="10"
   d="m 11.568,290.959 c 0,5.145 4.171,9.315 9.314,9.315 5.145,0 9.316,-4.171 9.316,-9.315 0,-5.144 -4.171,-9.315 -9.316,-9.315 -5.143,0 -9.314,4.17 -9.314,9.315"
   id="path234"
   inkscape:connector-curvature="0"
   style="display:inline;fill:none;stroke:#ec1c24;stroke-width:0.28349999;stroke-linecap:round;stroke-linejoin:round;stroke-miterlimit:10" />
	
		<path
   display="inline"
   stroke-miterlimit="10"
   d="m 58.528,290.959 c 0,5.145 4.171,9.315 9.315,9.315 5.144,0 9.314,-4.171 9.314,-9.315 0,-5.144 -4.17,-9.315 -9.314,-9.315 -5.144,0 -9.315,4.17 -9.315,9.315"
   id="path236"
   inkscape:connector-curvature="0"
   style="display:inline;fill:none;stroke:#ec1c24;stroke-width:0.28349999;stroke-linecap:round;stroke-linejoin:round;stroke-miterlimit:10" />
	
		<path
   display="inline"
   stroke-miterlimit="10"
   d="m 58.528,328.516 c 0,5.144 4.171,9.314 9.315,9.314 5.144,0 9.314,-4.171 9.314,-9.314 0,-5.145 -4.17,-9.315 -9.314,-9.315 -5.144,0 -9.315,4.17 -9.315,9.315"
   id="path238"
   inkscape:connector-curvature="0"
   style="display:inline;fill:none;stroke:#ec1c24;stroke-width:0.28349999;stroke-linecap:round;stroke-linejoin:round;stroke-miterlimit:10" />
	
		<path
   display="inline"
   stroke-miterlimit="10"
   d="m 39.927,328.545 c 0,2.449 1.985,4.437 4.436,4.437 2.451,0 4.436,-1.987 4.436,-4.437 0,-2.45 -1.985,-4.436 -4.436,-4.436 -2.45,0 -4.436,1.986 -4.436,4.436"
   id="path240"
   inkscape:connector-curvature="0"
   style="display:inline;fill:none;stroke:#ec1c24;stroke-width:0.28349999;stroke-linecap:round;stroke-linejoin:round;stroke-miterlimit:10" />
	
		<path
   display="inline"
   stroke-miterlimit="10"
   d="m 33.288,240.258 c 0,6.125 4.966,11.09 11.091,11.09 6.124,0 11.089,-4.965 11.089,-11.09 0,-6.125 -4.966,-11.09 -11.089,-11.09 -6.126,0 -11.091,4.965 -11.091,11.09"
   id="path242"
   inkscape:connector-curvature="0"
   style="display:inline;fill:none;stroke:#ec1c24;stroke-width:0.28349999;stroke-linecap:round;stroke-linejoin:round;stroke-miterlimit:10" />
	
		<path
   display="inline"
   stroke-miterlimit="10"
   d="m 11.568,172.671 c 0,5.144 4.171,9.315 9.314,9.315 5.145,0 9.316,-4.171 9.316,-9.315 0,-5.145 -4.171,-9.315 -9.316,-9.315 -5.143,0 -9.314,4.171 -9.314,9.315"
   id="path244"
   inkscape:connector-curvature="0"
   style="display:inline;fill:none;stroke:#ec1c24;stroke-width:0.28349999;stroke-linecap:round;stroke-linejoin:round;stroke-miterlimit:10" />
	
		<path
   display="inline"
   stroke-miterlimit="10"
   d="m 11.568,135.114 c 0,5.145 4.171,9.315 9.314,9.315 5.145,0 9.316,-4.171 9.316,-9.315 0,-5.144 -4.171,-9.315 -9.316,-9.315 -5.143,0 -9.314,4.171 -9.314,9.315"
   id="path246"
   inkscape:connector-curvature="0"
   style="display:inline;fill:none;stroke:#ec1c24;stroke-width:0.28349999;stroke-linecap:round;stroke-linejoin:round;stroke-miterlimit:10" />
	
		<path
   display="inline"
   stroke-miterlimit="10"
   d="m 58.528,135.114 c 0,5.145 4.171,9.315 9.315,9.315 5.144,0 9.314,-4.171 9.314,-9.315 0,-5.144 -4.17,-9.315 -9.314,-9.315 -5.144,0 -9.315,4.171 -9.315,9.315"
   id="path248"
   inkscape:connector-curvature="0"
   style="display:inline;fill:none;stroke:#ec1c24;stroke-width:0.28349999;stroke-linecap:round;stroke-linejoin:round;stroke-miterlimit:10" />
	
		<path
   display="inline"
   stroke-miterlimit="10"
   d="m 58.528,172.671 c 0,5.144 4.171,9.315 9.315,9.315 5.144,0 9.314,-4.171 9.314,-9.315 0,-5.145 -4.17,-9.315 -9.314,-9.315 -5.144,0 -9.315,4.171 -9.315,9.315"
   id="path250"
   inkscape:connector-curvature="0"
   style="display:inline;fill:none;stroke:#ec1c24;stroke-width:0.28349999;stroke-linecap:round;stroke-linejoin:round;stroke-miterlimit:10" />
	
		<path
   display="inline"
   stroke-miterlimit="10"
   d="m 39.927,172.701 c 0,2.449 1.985,4.435 4.436,4.435 2.451,0 4.436,-1.985 4.436,-4.435 0,-2.45 -1.985,-4.436 -4.436,-4.436 -2.45,0 -4.436,1.986 -4.436,4.436"
   id="path252"
   inkscape:connector-curvature="0"
   style="display:inline;fill:none;stroke:#ec1c24;stroke-width:0.28349999;stroke-linecap:round;stroke-linejoin:round;stroke-miterlimit:10" />
	
		<path
   display="inline"
   stroke-miterlimit="10"
   d="m 33.288,84.413 c 0,6.124 4.966,11.09 11.091,11.09 6.124,0 11.089,-4.966 11.089,-11.09 0,-6.125 -4.966,-11.089 -11.089,-11.089 -6.126,0 -11.091,4.965 -11.091,11.089"
   id="path254"
   inkscape:connector-curvature="0"
   style="display:inline;fill:none;stroke:#ec1c24;stroke-width:0.28349999;stroke-linecap:round;stroke-linejoin:round;stroke-miterlimit:10" />
	
		<path
   display="inline"
   stroke-miterlimit="10"
   d="m 68.761,65.621 c 0,4.164 3.376,7.541 7.541,7.541 4.165,0 7.541,-3.377 7.541,-7.541 0,-4.165 -3.376,-7.54 -7.541,-7.54 -4.165,0 -7.541,3.375 -7.541,7.54"
   id="path256"
   inkscape:connector-curvature="0"
   style="display:inline;fill:none;stroke:#ec1c24;stroke-width:0.28349999;stroke-linecap:round;stroke-linejoin:round;stroke-miterlimit:10" />
	
		<path
   display="inline"
   stroke-miterlimit="10"
   d="m 68.761,221.495 c 0,4.164 3.376,7.541 7.541,7.541 4.165,0 7.541,-3.377 7.541,-7.541 0,-4.165 -3.376,-7.541 -7.541,-7.541 -4.165,0 -7.541,3.376 -7.541,7.541"
   id="path258"
   inkscape:connector-curvature="0"
   style="display:inline;fill:none;stroke:#ec1c24;stroke-width:0.28349999;stroke-linecap:round;stroke-linejoin:round;stroke-miterlimit:10" />
</g>
<g
   id="widgets"
   display="none"
   style="display:none">
	
		<rect
   id="Rogan_3_"
   x="24.864"
   y="64.416"
   display="inline"
   stroke-miterlimit="10"
   width="38.987"
   height="39.994999"
   style="display:inline;fill:none;stroke:#000000;stroke-miterlimit:10" />
	
		<rect
   id="SmallLight_4_"
   x="40.863998"
   y="169.201"
   display="inline"
   stroke-miterlimit="10"
   width="7"
   height="7"
   style="display:inline;fill:none;stroke:#000000;stroke-miterlimit:10" />
	
		<rect
   id="PJ301_2_"
   x="56.348"
   y="161.202"
   display="inline"
   stroke-miterlimit="10"
   width="22.992001"
   height="22.996"
   style="display:inline;fill:none;stroke:#000000;stroke-miterlimit:10" />
	
		<rect
   id="PJ301_3_"
   x="56.348"
   y="123.616"
   display="inline"
   stroke-miterlimit="10"
   width="22.992001"
   height="22.996"
   style="display:inline;fill:none;stroke:#000000;stroke-miterlimit:10" />
	
		<rect
   id="PJ301_1_"
   x="9.5550003"
   y="161.202"
   display="inline"
   stroke-miterlimit="10"
   width="22.992001"
   height="22.996"
   style="display:inline;fill:none;stroke:#000000;stroke-miterlimit:10" />
	
		<rect
   id="PJ301_11_"
   x="9.5550003"
   y="123.616"
   display="inline"
   stroke-miterlimit="10"
   width="22.992001"
   height="22.996"
   style="display:inline;fill:none;stroke:#000000;stroke-miterlimit:10" />
	
		<rect
   id="TL1105_1_"
   x="68.302002"
   y="57.608002"
   display="inline"
   stroke-miterlimit="10"
   width="16"
   height="15.998"
   style="display:inline;fill:none;stroke:#000000;stroke-miterlimit:10" />
	
		<rect
   id="Rogan_1_"
   x="24.864"
   y="220.24899"
   display="inline"
   stroke-miterlimit="10"
   width="38.987"
   height="39.995998"
   style="display:inline;fill:none;stroke:#000000;stroke-miterlimit:10" />
	
		<rect
   id="SmallLight_1_"
   x="40.863998"
   y="325.034"
   display="inline"
   stroke-miterlimit="10"
   width="7"
   height="7"
   style="display:inline;fill:none;stroke:#000000;stroke-miterlimit:10" />
	
		<rect
   id="PJ301_7_"
   x="56.348"
   y="317.03601"
   display="inline"
   stroke-miterlimit="10"
   width="22.992001"
   height="22.996"
   style="display:inline;fill:none;stroke:#000000;stroke-miterlimit:10" />
	
		<rect
   id="PJ301_6_"
   x="56.348"
   y="279.45001"
   display="inline"
   stroke-miterlimit="10"
   width="22.992001"
   height="22.996"
   style="display:inline;fill:none;stroke:#000000;stroke-miterlimit:10" />
	
		<rect
   id="PJ301_5_"
   x="9.5550003"
   y="317.03601"
   display="inline"
   stroke-miterlimit="10"
   width="22.992001"
   height="22.996"
   style="display:inline;fill:none;stroke:#000000;stroke-miterlimit:10" />
	
		<rect
   id="PJ301_4_"
   x="9.5550003"
   y="279.45001"
   display="inline"
   stroke-miterlimit="10"
   width="22.992001"
   height="22.996"
   style="display:inline;fill:none;stroke:#000000;stroke-miterlimit:10" />
	
		<rect
   id="TL1105_2_"
   x="68.302002"
   y="213.442"
   display="inline"
   stroke-miterlimit="10"
   width="16"
   height="15.998"
   style="display:inline;fill:none;stroke:#000000;stroke-miterlimit:10" />
</g>
</svg>