<?xml version="1.0" encoding="UTF-8" standalone="no"?>
<!-- Generator: Adobe Illustrator 16.0.3, SVG Export Plug-In . SVG Version: 6.00 Build 0)  -->

<svg
   xmlns:dc="http://purl.org/dc/elements/1.1/"
   xmlns:cc="http://creativecommons.org/ns#"
   xmlns:rdf="http://www.w3.org/1999/02/22-rdf-syntax-ns#"
   xmlns:svg="http://www.w3.org/2000/svg"
   xmlns="http://www.w3.org/2000/svg"
   xmlns:sodipodi="http://sodipodi.sourceforge.net/DTD/sodipodi-0.dtd"
   xmlns:inkscape="http://www.inkscape.org/namespaces/inkscape"
   version="1.1"
   x="0px"
   y="0px"
   width="180"
   height="380"
   viewBox="0 0 180 380"
   enable-background="new 0 0 90 380"
   xml:space="preserve"
   id="svg276"
   sodipodi:docname="CustomScale.svg"
   inkscape:version="0.92.3 (2405546, 2018-03-11)"><metadata
   id="metadata282"><rdf:RDF><cc:Work
       rdf:about=""><dc:format>image/svg+xml</dc:format><dc:type
         rdf:resource="http://purl.org/dc/dcmitype/StillImage" /><dc:title></dc:title></cc:Work></rdf:RDF></metadata><defs
   id="defs280">
	
	
	
	
	
	
	
	
	
	
	
	
	
	
	
	
</defs><sodipodi:namedview
   pagecolor="#ffffff"
   bordercolor="#666666"
   borderopacity="1"
   objecttolerance="10"
   gridtolerance="10"
   guidetolerance="10"
   inkscape:pageopacity="0"
   inkscape:pageshadow="2"
   inkscape:window-width="1920"
   inkscape:window-height="1017"
   id="namedview278"
   showgrid="true"
   inkscape:zoom="1.7566022"
   inkscape:cx="-99.991717"
   inkscape:cy="155.43847"
   inkscape:window-x="-8"
   inkscape:window-y="-8"
   inkscape:window-maximized="1"
   inkscape:current-layer="layer7"
   inkscape:measure-start="27.3255,163.668"
   inkscape:measure-end="27.3255,27.6101"
   showguides="true"
   inkscape:snap-grids="false"><inkscape:grid
     type="xygrid"
     id="grid107" /></sodipodi:namedview>
<g
   inkscape:groupmode="layer"
   id="layer3"
   inkscape:label="Base"
   style=""><g
     id="g3859"
     style="fill:#e6e6e6;fill-opacity:1"><rect
       id="background"
       width="90"
       height="380"
       x="0"
       y="0"
       style="fill:#e6e6e6;fill-opacity:1" /><rect
       id="background-4"
       width="90"
       height="380"
       x="90"
       y="0"
       style="fill:#e6e6e6;fill-opacity:1" /></g></g><g
   inkscape:groupmode="layer"
   id="layer5"
   inkscape:label="Color"
   style="display:inline;opacity:1" /><g
   inkscape:groupmode="layer"
   id="layer6"
   inkscape:label="Lines"
   style="display:inline" /><g
   inkscape:groupmode="layer"
   id="layer7"
   inkscape:label="Text">















































































<g
   aria-label="CustomScale"
   style="font-style:normal;font-weight:normal;font-size:40px;line-height:1.25;font-family:sans-serif;letter-spacing:0px;word-spacing:0px;fill:#000000;fill-opacity:1;stroke:none"
   id="text5048-7"><path
     d="m 61.835942,13.472441 q -0.286459,0.125 -0.520834,0.234375 -0.229166,0.109375 -0.604166,0.229166 -0.317709,0.09896 -0.692709,0.166667 -0.369791,0.07292 -0.817708,0.07292 -0.84375,0 -1.536458,-0.234375 -0.6875,-0.239584 -1.197917,-0.744792 -0.5,-0.494792 -0.78125,-1.255208 -0.28125,-0.765625 -0.28125,-1.776042 0,-0.9583334 0.270833,-1.7135418 0.270834,-0.7552083 0.78125,-1.2760417 0.494792,-0.5052083 1.192709,-0.7708333 0.703125,-0.265625 1.557291,-0.265625 0.625,0 1.244792,0.1510416 0.625,0.1510417 1.385417,0.53125 v 1.2239584 h -0.07813 q -0.640625,-0.5364583 -1.270834,-0.78125 -0.630208,-0.2447917 -1.348958,-0.2447917 -0.588542,0 -1.0625,0.1927083 -0.46875,0.1875001 -0.838542,0.5885417 -0.359375,0.390625 -0.5625,0.9895834 -0.197916,0.59375 -0.197916,1.3750001 0,0.817708 0.21875,1.40625 0.223958,0.588542 0.572916,0.958333 0.364584,0.385417 0.848959,0.572917 0.489583,0.182292 1.03125,0.182292 0.744791,0 1.395833,-0.255209 0.651042,-0.255208 1.21875,-0.765625 h 0.07292 z"
     style="font-size:10.66666698px;text-align:center;text-anchor:middle"
     id="path113" /><path
     d="m 68.049484,14.034941 h -0.979167 v -0.645834 q -0.494792,0.390625 -0.947917,0.598959 -0.453125,0.208333 -1,0.208333 -0.916667,0 -1.427083,-0.557292 Q 63.1849,13.076607 63.1849,11.993274 V 8.2172322 h 0.979167 v 3.3124998 q 0,0.442709 0.04167,0.760417 0.04167,0.3125 0.177084,0.536458 0.140625,0.229167 0.364583,0.333334 0.223958,0.104166 0.651042,0.104166 0.380208,0 0.828125,-0.197916 0.453125,-0.197917 0.84375,-0.505209 V 8.2172322 h 0.979167 z"
     style="font-size:10.66666698px;text-align:center;text-anchor:middle"
     id="path115" /><path
     d="m 74.132817,12.357857 q 0,0.796875 -0.661458,1.307292 -0.65625,0.510417 -1.796875,0.510417 -0.645833,0 -1.1875,-0.151042 -0.536458,-0.15625 -0.901042,-0.338542 v -1.098958 h 0.05208 q 0.463541,0.348958 1.03125,0.557292 0.567708,0.203125 1.088541,0.203125 0.645834,0 1.010417,-0.208334 0.364583,-0.208333 0.364583,-0.65625 0,-0.34375 -0.197916,-0.520833 -0.197917,-0.177083 -0.760417,-0.302083 -0.208333,-0.04687 -0.546875,-0.109375 -0.333333,-0.0625 -0.609375,-0.135417 -0.765625,-0.203125 -1.088542,-0.59375 -0.317708,-0.395833 -0.317708,-0.9687501 0,-0.359375 0.145833,-0.6770833 0.151042,-0.3177084 0.453125,-0.5677084 0.291667,-0.2447916 0.739584,-0.3854167 0.453125,-0.1458333 1.010416,-0.1458333 0.520834,0 1.052084,0.1302083 0.536458,0.125 0.890625,0.3072917 v 1.0468751 h -0.05208 q -0.375,-0.2760417 -0.911458,-0.4635417 -0.536458,-0.1927084 -1.052083,-0.1927084 -0.536459,0 -0.90625,0.2083334 -0.369792,0.203125 -0.369792,0.609375 0,0.3593754 0.223958,0.5416664 0.21875,0.182292 0.708334,0.296875 0.270833,0.0625 0.604166,0.125 0.338542,0.0625 0.5625,0.114584 0.682292,0.15625 1.052084,0.536458 0.369791,0.385417 0.369791,1.020833 z"
     style="font-size:10.66666698px;text-align:center;text-anchor:middle"
     id="path117" /><path
     d="m 78.559901,13.982857 q -0.276042,0.07292 -0.604167,0.119792 -0.322917,0.04687 -0.578125,0.04687 -0.890625,0 -1.354167,-0.479167 -0.463541,-0.479166 -0.463541,-1.536458 V 9.0401489 H 74.898442 V 8.2172322 h 0.661459 v -1.671875 h 0.979166 v 1.671875 h 2.020834 v 0.8229167 h -2.020834 v 2.6510421 q 0,0.458333 0.02083,0.71875 0.02083,0.255208 0.145833,0.479166 0.114583,0.208334 0.3125,0.307292 0.203125,0.09375 0.614583,0.09375 0.239584,0 0.5,-0.06771 0.260417,-0.07292 0.375,-0.119792 h 0.05208 z"
     style="font-size:10.66666698px;text-align:center;text-anchor:middle"
     id="path119" /><path
     d="m 84.705735,11.128691 q 0,1.421875 -0.729167,2.244791 -0.729167,0.822917 -1.953125,0.822917 -1.234375,0 -1.963542,-0.822917 -0.723958,-0.822916 -0.723958,-2.244791 0,-1.4218754 0.723958,-2.2447921 0.729167,-0.828125 1.963542,-0.828125 1.223958,0 1.953125,0.828125 0.729167,0.8229167 0.729167,2.2447921 z m -1.010417,0 q 0,-1.1302087 -0.442708,-1.6770838 -0.442709,-0.5520833 -1.229167,-0.5520833 -0.796875,0 -1.239583,0.5520833 -0.4375,0.5468751 -0.4375,1.6770838 0,1.09375 0.442708,1.661458 0.442708,0.5625 1.234375,0.5625 0.78125,0 1.223958,-0.557292 0.447917,-0.5625 0.447917,-1.666666 z"
     style="font-size:10.66666698px;text-align:center;text-anchor:middle"
     id="path121" /><path
     d="m 94.716151,14.034941 h -0.979167 v -3.3125 q 0,-0.375 -0.03646,-0.7239587 -0.03125,-0.3489584 -0.140625,-0.5572917 -0.119792,-0.2239584 -0.34375,-0.3385417 -0.223959,-0.1145833 -0.645834,-0.1145833 -0.411458,0 -0.822916,0.2083333 -0.411459,0.203125 -0.822917,0.5208334 0.01563,0.1197916 0.02604,0.28125 0.01042,0.1562497 0.01042,0.3124997 v 3.723959 h -0.979166 v -3.3125 q 0,-0.385417 -0.03646,-0.7291671 -0.03125,-0.3489583 -0.140625,-0.5572917 -0.119791,-0.2239583 -0.34375,-0.3333333 -0.223958,-0.1145833 -0.645833,-0.1145833 -0.401042,0 -0.807292,0.1979166 -0.401041,0.1979167 -0.802083,0.5052084 V 14.034941 H 86.226567 V 8.2172322 h 0.979167 v 0.6458334 q 0.458333,-0.3802084 0.911458,-0.5937501 0.458334,-0.2135416 0.973959,-0.2135416 0.59375,0 1.005208,0.25 0.416667,0.25 0.619792,0.6927083 0.59375,-0.5 1.083333,-0.71875 0.489583,-0.2239583 1.046875,-0.2239583 0.958333,0 1.411458,0.5833333 0.458334,0.578125 0.458334,1.6197918 z"
     style="font-size:10.66666698px;text-align:center;text-anchor:middle"
     id="path123" /><path
     d="m 102.31511,11.821399 q 0,0.453125 -0.21354,0.895833 -0.20833,0.442709 -0.58854,0.75 -0.41667,0.333334 -0.97396,0.520834 -0.552084,0.1875 -1.333334,0.1875 -0.838542,0 -1.510417,-0.15625 -0.666667,-0.15625 -1.359375,-0.463542 v -1.291667 h 0.07292 q 0.588541,0.489584 1.359375,0.755209 0.770833,0.265625 1.447917,0.265625 0.958337,0 1.489587,-0.359375 0.53645,-0.359375 0.53645,-0.958334 0,-0.515625 -0.2552,-0.760416 -0.25,-0.244792 -0.76563,-0.380209 -0.390624,-0.104166 -0.848957,-0.171875 -0.453125,-0.06771 -0.963542,-0.171875 -1.03125,-0.21875 -1.53125,-0.7447914 -0.494792,-0.53125 -0.494792,-1.3802084 0,-0.9739583 0.822917,-1.59375 0.822916,-0.625 2.088542,-0.625 0.817712,0 1.500002,0.15625 0.68229,0.15625 1.20833,0.3854166 v 1.2187501 h -0.0729 q -0.4427,-0.375 -1.16666,-0.6197917 -0.71875,-0.25 -1.473961,-0.25 -0.828125,0 -1.333333,0.34375 -0.5,0.34375 -0.5,0.8854167 0,0.484375 0.25,0.7604167 0.25,0.2760416 0.880208,0.421875 0.333334,0.072917 0.947917,0.1770833 0.614579,0.1041667 1.041669,0.2135417 0.86458,0.2291664 1.30208,0.6927084 0.4375,0.463542 0.4375,1.296875 z"
     style="font-size:10.66666698px;text-align:center;text-anchor:middle"
     id="path125" /><path
     d="m 108.19532,13.670357 q -0.48959,0.234375 -0.93229,0.364584 -0.4375,0.130208 -0.9323,0.130208 -0.63021,0 -1.15625,-0.182292 -0.52604,-0.1875 -0.90104,-0.5625 -0.38021,-0.375 -0.58854,-0.947916 -0.20833,-0.572917 -0.20833,-1.338542 0,-1.4270834 0.78125,-2.2395834 0.78645,-0.8125001 2.07291,-0.8125001 0.5,0 0.97917,0.140625 0.48438,0.1406251 0.88542,0.3437501 v 1.0885417 h -0.0521 q -0.44791,-0.3489584 -0.92708,-0.5364584 -0.47396,-0.1875 -0.92708,-0.1875 -0.83334,0 -1.31771,0.5625 -0.47917,0.5572921 -0.47917,1.6406251 0,1.052083 0.46875,1.619792 0.47396,0.5625 1.32813,0.5625 0.29687,0 0.60416,-0.07813 0.3073,-0.07813 0.55209,-0.203125 0.21354,-0.109375 0.40104,-0.229167 0.1875,-0.125 0.29687,-0.213542 h 0.0521 z"
     style="font-size:10.66666698px;text-align:center;text-anchor:middle"
     id="path127" /><path
     d="m 113.97657,14.034941 h -0.97396 v -0.619792 q -0.13021,0.08854 -0.35417,0.25 -0.21875,0.15625 -0.42708,0.25 -0.24479,0.119792 -0.5625,0.197917 -0.31771,0.08333 -0.74479,0.08333 -0.78646,0 -1.33334,-0.520833 -0.54687,-0.520834 -0.54687,-1.328125 0,-0.661459 0.28125,-1.067709 0.28646,-0.411458 0.8125,-0.645833 0.53125,-0.234375 1.27604,-0.317708 0.74479,-0.08333 1.59896,-0.125 v -0.151042 q 0,-0.3333334 -0.11979,-0.5520834 -0.11459,-0.21875 -0.33334,-0.34375 -0.20833,-0.1197917 -0.5,-0.1614584 -0.29166,-0.041667 -0.60937,-0.041667 -0.38542,0 -0.85938,0.1041666 -0.47396,0.098958 -0.97916,0.2916667 h -0.0521 V 8.3422322 q 0.28646,-0.078125 0.82813,-0.171875 0.54166,-0.09375 1.06771,-0.09375 0.61458,0 1.06771,0.1041667 0.45833,0.098958 0.79166,0.34375 0.32813,0.2395833 0.5,0.6197917 0.17188,0.3802083 0.17188,0.9427084 z m -0.97396,-1.432292 v -1.619792 q -0.44792,0.02604 -1.05729,0.07813 -0.60417,0.05208 -0.95834,0.151042 -0.42187,0.119792 -0.68229,0.375 -0.26042,0.25 -0.26042,0.692708 0,0.5 0.30209,0.755209 0.30208,0.25 0.92187,0.25 0.51563,0 0.94271,-0.197917 0.42709,-0.203125 0.79167,-0.484375 z"
     style="font-size:10.66666698px;text-align:center;text-anchor:middle"
     id="path129" /><path
     d="m 116.86198,14.034941 h -0.97916 V 5.9307738 h 0.97916 z"
     style="font-size:10.66666698px;text-align:center;text-anchor:middle"
     id="path131" /><path
     d="m 123.67969,11.227649 h -4.28646 q 0,0.536458 0.16146,0.9375 0.16146,0.395833 0.44271,0.651042 0.27083,0.25 0.64063,0.375 0.375,0.125 0.82291,0.125 0.59375,0 1.19271,-0.234375 0.60417,-0.239584 0.85938,-0.46875 h 0.0521 v 1.067708 q -0.49479,0.208333 -1.01042,0.348958 -0.51562,0.140625 -1.08333,0.140625 -1.44792,0 -2.26042,-0.78125 -0.8125,-0.786458 -0.8125,-2.229166 0,-1.4270837 0.77604,-2.2656254 0.78125,-0.8385417 2.05209,-0.8385417 1.17708,0 1.8125,0.6875 0.64062,0.6875 0.64062,1.9531251 z m -0.95312,-0.75 q -0.005,-0.7708334 -0.39063,-1.1927084 -0.38021,-0.421875 -1.16146,-0.421875 -0.78645,0 -1.2552,0.4635416 -0.46355,0.4635417 -0.52605,1.1510418 z"
     style="font-size:10.66666698px;text-align:center;text-anchor:middle"
     id="path133" /></g>









<g
   aria-label="noobhour"
   style="font-style:normal;font-weight:normal;font-size:40px;line-height:1.25;font-family:sans-serif;letter-spacing:0px;word-spacing:0px;fill:#000000;fill-opacity:1;stroke:none"
   id="text5048"><path
     d="M 69.882817,376.22226 H 68.90365 v -3.3125 q 0,-0.40104 -0.04687,-0.75 -0.04687,-0.35417 -0.171875,-0.55208 -0.130208,-0.21875 -0.375,-0.32292 -0.244791,-0.10938 -0.635416,-0.10938 -0.401042,0 -0.838542,0.19792 -0.4375,0.19792 -0.838542,0.50521 v 4.34375 h -0.979166 v -5.81771 H 65.9974 v 0.64583 q 0.458334,-0.3802 0.947917,-0.59375 0.489583,-0.21354 1.005208,-0.21354 0.942709,0 1.4375,0.56771 0.494792,0.56771 0.494792,1.63542 z"
     style="font-size:10.66666698px;text-align:center;text-anchor:middle"
     id="path136" /><path
     d="m 76.726567,373.31601 q 0,1.42187 -0.729167,2.24479 -0.729166,0.82292 -1.953125,0.82292 -1.234375,0 -1.963541,-0.82292 -0.723959,-0.82292 -0.723959,-2.24479 0,-1.42188 0.723959,-2.24479 0.729166,-0.82813 1.963541,-0.82813 1.223959,0 1.953125,0.82813 0.729167,0.82291 0.729167,2.24479 z m -1.010417,0 q 0,-1.13021 -0.442708,-1.67708 -0.442708,-0.55209 -1.229167,-0.55209 -0.796875,0 -1.239583,0.55209 -0.4375,0.54687 -0.4375,1.67708 0,1.09375 0.442708,1.66146 0.442709,0.5625 1.234375,0.5625 0.78125,0 1.223959,-0.55729 0.447916,-0.5625 0.447916,-1.66667 z"
     style="font-size:10.66666698px;text-align:center;text-anchor:middle"
     id="path138" /><path
     d="m 83.205734,373.31601 q 0,1.42187 -0.729167,2.24479 -0.729166,0.82292 -1.953125,0.82292 -1.234375,0 -1.963541,-0.82292 -0.723959,-0.82292 -0.723959,-2.24479 0,-1.42188 0.723959,-2.24479 0.729166,-0.82813 1.963541,-0.82813 1.223959,0 1.953125,0.82813 0.729167,0.82291 0.729167,2.24479 z m -1.010417,0 q 0,-1.13021 -0.442708,-1.67708 -0.442708,-0.55209 -1.229167,-0.55209 -0.796875,0 -1.239583,0.55209 -0.4375,0.54687 -0.4375,1.67708 0,1.09375 0.442708,1.66146 0.442709,0.5625 1.234375,0.5625 0.78125,0 1.223959,-0.55729 0.447916,-0.5625 0.447916,-1.66667 z"
     style="font-size:10.66666698px;text-align:center;text-anchor:middle"
     id="path140" /><path
     d="m 89.846359,373.26913 q 0,0.72917 -0.208333,1.3125 -0.203125,0.58334 -0.552083,0.97917 -0.369792,0.41146 -0.8125,0.61979 -0.442709,0.20313 -0.973959,0.20313 -0.494791,0 -0.864583,-0.11979 -0.369792,-0.11459 -0.729167,-0.3125 l -0.0625,0.27083 h -0.916667 v -8.10417 h 0.979167 v 2.89584 q 0.411459,-0.33855 0.875,-0.55209 0.463542,-0.21875 1.041667,-0.21875 1.03125,0 1.625,0.79167 0.598958,0.79167 0.598958,2.23437 z m -1.010416,0.026 q 0,-1.04167 -0.34375,-1.57813 -0.34375,-0.54167 -1.109375,-0.54167 -0.427084,0 -0.864584,0.1875 -0.4375,0.1823 -0.8125,0.47396 v 3.33334 q 0.416667,0.1875 0.713542,0.26041 0.302083,0.0729 0.682292,0.0729 0.8125,0 1.270833,-0.53125 0.463542,-0.53646 0.463542,-1.67708 z"
     style="font-size:10.66666698px;text-align:center;text-anchor:middle"
     id="path142" /><path
     d="m 96.236985,376.22226 h -0.979167 v -3.3125 q 0,-0.40104 -0.04687,-0.75 -0.04687,-0.35417 -0.171875,-0.55208 -0.130208,-0.21875 -0.375,-0.32292 -0.244791,-0.10938 -0.635416,-0.10938 -0.401042,0 -0.838542,0.19792 -0.4375,0.19792 -0.838542,0.50521 v 4.34375 h -0.979167 v -8.10417 h 0.979167 v 2.93229 q 0.458334,-0.3802 0.947917,-0.59375 0.489583,-0.21354 1.005208,-0.21354 0.942709,0 1.4375,0.56771 0.494792,0.56771 0.494792,1.63542 z"
     style="font-size:10.66666698px;text-align:center;text-anchor:middle"
     id="path144" /><path
     d="m 103.08073,373.31601 q 0,1.42187 -0.72916,2.24479 -0.72917,0.82292 -1.95313,0.82292 -1.234372,0 -1.963539,-0.82292 -0.723958,-0.82292 -0.723958,-2.24479 0,-1.42188 0.723958,-2.24479 0.729167,-0.82813 1.963539,-0.82813 1.22396,0 1.95313,0.82813 0.72916,0.82291 0.72916,2.24479 z m -1.01041,0 q 0,-1.13021 -0.44271,-1.67708 -0.44271,-0.55209 -1.22917,-0.55209 -0.796872,0 -1.23958,0.55209 -0.4375,0.54687 -0.4375,1.67708 0,1.09375 0.442708,1.66146 0.442709,0.5625 1.234372,0.5625 0.78125,0 1.22396,-0.55729 0.44792,-0.5625 0.44792,-1.66667 z"
     style="font-size:10.66666698px;text-align:center;text-anchor:middle"
     id="path146" /><path
     d="m 109.42449,376.22226 h -0.97917 v -0.64583 q -0.49479,0.39062 -0.94792,0.59895 -0.45312,0.20834 -1,0.20834 -0.91666,0 -1.42708,-0.55729 -0.51042,-0.5625 -0.51042,-1.64584 v -3.77604 h 0.97917 v 3.3125 q 0,0.44271 0.0417,0.76042 0.0417,0.3125 0.17708,0.53646 0.14062,0.22916 0.36458,0.33333 0.22396,0.10417 0.65104,0.10417 0.38021,0 0.82813,-0.19792 0.45312,-0.19792 0.84375,-0.50521 v -4.34375 h 0.97917 z"
     style="font-size:10.66666698px;text-align:center;text-anchor:middle"
     id="path148" /><path
     d="m 114.98178,371.47226 h -0.0521 q -0.21875,-0.0521 -0.42708,-0.0729 -0.20312,-0.026 -0.48437,-0.026 -0.45313,0 -0.875,0.20313 -0.42188,0.19791 -0.8125,0.51562 v 4.13021 h -0.97917 v -5.81771 h 0.97917 v 0.85938 q 0.58333,-0.46875 1.02604,-0.66146 0.44791,-0.19792 0.91146,-0.19792 0.2552,0 0.36979,0.0156 0.11458,0.0104 0.34375,0.0469 z"
     style="font-size:10.66666698px;text-align:center;text-anchor:middle"
     id="path150" /></g>





























</g>
<g
   id="decoupe"
   display="none"
   style="display:none">
	
		<path
   display="inline"
   stroke-miterlimit="10"
   d="m 17.448,371.129 c 0,2.612 2.118,4.73 4.731,4.73 2.612,0 4.731,-2.118 4.731,-4.73 0,-2.612 -2.119,-4.73 -4.731,-4.73 -2.613,-10e-4 -4.731,2.118 -4.731,4.73"
   id="path226"
   inkscape:connector-curvature="0"
   style="display:inline;fill:none;stroke:#ec1c24;stroke-width:0.28349999;stroke-linecap:round;stroke-linejoin:round;stroke-miterlimit:10" />
	
		<path
   display="inline"
   stroke-miterlimit="10"
   d="m 17.448,8.873 c 0,2.612 2.118,4.73 4.731,4.73 2.612,0 4.731,-2.118 4.731,-4.73 0,-2.614 -2.119,-4.731 -4.731,-4.731 -2.613,0 -4.731,2.116 -4.731,4.731"
   id="path228"
   inkscape:connector-curvature="0"
   style="display:inline;fill:none;stroke:#ec1c24;stroke-width:0.28349999;stroke-linecap:round;stroke-linejoin:round;stroke-miterlimit:10" />
	
		<polyline
   display="inline"
   stroke-miterlimit="10"
   points="   0,380 0,0 88.716,0 88.716,380 0,380  "
   id="polyline230"
   style="display:inline;fill:none;stroke:#ec1c24;stroke-width:0.28349999;stroke-linecap:round;stroke-linejoin:round;stroke-miterlimit:10" />
	
		<path
   display="inline"
   stroke-miterlimit="10"
   d="m 11.568,328.516 c 0,5.144 4.171,9.314 9.314,9.314 5.145,0 9.316,-4.171 9.316,-9.314 0,-5.145 -4.171,-9.315 -9.316,-9.315 -5.143,-0.001 -9.314,4.17 -9.314,9.315"
   id="path232"
   inkscape:connector-curvature="0"
   style="display:inline;fill:none;stroke:#ec1c24;stroke-width:0.28349999;stroke-linecap:round;stroke-linejoin:round;stroke-miterlimit:10" />
	
		<path
   display="inline"
   stroke-miterlimit="10"
   d="m 11.568,290.959 c 0,5.145 4.171,9.315 9.314,9.315 5.145,0 9.316,-4.171 9.316,-9.315 0,-5.144 -4.171,-9.315 -9.316,-9.315 -5.143,0 -9.314,4.17 -9.314,9.315"
   id="path234"
   inkscape:connector-curvature="0"
   style="display:inline;fill:none;stroke:#ec1c24;stroke-width:0.28349999;stroke-linecap:round;stroke-linejoin:round;stroke-miterlimit:10" />
	
		<path
   display="inline"
   stroke-miterlimit="10"
   d="m 58.528,290.959 c 0,5.145 4.171,9.315 9.315,9.315 5.144,0 9.314,-4.171 9.314,-9.315 0,-5.144 -4.17,-9.315 -9.314,-9.315 -5.144,0 -9.315,4.17 -9.315,9.315"
   id="path236"
   inkscape:connector-curvature="0"
   style="display:inline;fill:none;stroke:#ec1c24;stroke-width:0.28349999;stroke-linecap:round;stroke-linejoin:round;stroke-miterlimit:10" />
	
		<path
   display="inline"
   stroke-miterlimit="10"
   d="m 58.528,328.516 c 0,5.144 4.171,9.314 9.315,9.314 5.144,0 9.314,-4.171 9.314,-9.314 0,-5.145 -4.17,-9.315 -9.314,-9.315 -5.144,0 -9.315,4.17 -9.315,9.315"
   id="path238"
   inkscape:connector-curvature="0"
   style="display:inline;fill:none;stroke:#ec1c24;stroke-width:0.28349999;stroke-linecap:round;stroke-linejoin:round;stroke-miterlimit:10" />
	
		<path
   display="inline"
   stroke-miterlimit="10"
   d="m 39.927,328.545 c 0,2.449 1.985,4.437 4.436,4.437 2.451,0 4.436,-1.987 4.436,-4.437 0,-2.45 -1.985,-4.436 -4.436,-4.436 -2.45,0 -4.436,1.986 -4.436,4.436"
   id="path240"
   inkscape:connector-curvature="0"
   style="display:inline;fill:none;stroke:#ec1c24;stroke-width:0.28349999;stroke-linecap:round;stroke-linejoin:round;stroke-miterlimit:10" />
	
		<path
   display="inline"
   stroke-miterlimit="10"
   d="m 33.288,240.258 c 0,6.125 4.966,11.09 11.091,11.09 6.124,0 11.089,-4.965 11.089,-11.09 0,-6.125 -4.966,-11.09 -11.089,-11.09 -6.126,0 -11.091,4.965 -11.091,11.09"
   id="path242"
   inkscape:connector-curvature="0"
   style="display:inline;fill:none;stroke:#ec1c24;stroke-width:0.28349999;stroke-linecap:round;stroke-linejoin:round;stroke-miterlimit:10" />
	
		<path
   display="inline"
   stroke-miterlimit="10"
   d="m 11.568,172.671 c 0,5.144 4.171,9.315 9.314,9.315 5.145,0 9.316,-4.171 9.316,-9.315 0,-5.145 -4.171,-9.315 -9.316,-9.315 -5.143,0 -9.314,4.171 -9.314,9.315"
   id="path244"
   inkscape:connector-curvature="0"
   style="display:inline;fill:none;stroke:#ec1c24;stroke-width:0.28349999;stroke-linecap:round;stroke-linejoin:round;stroke-miterlimit:10" />
	
		<path
   display="inline"
   stroke-miterlimit="10"
   d="m 11.568,135.114 c 0,5.145 4.171,9.315 9.314,9.315 5.145,0 9.316,-4.171 9.316,-9.315 0,-5.144 -4.171,-9.315 -9.316,-9.315 -5.143,0 -9.314,4.171 -9.314,9.315"
   id="path246"
   inkscape:connector-curvature="0"
   style="display:inline;fill:none;stroke:#ec1c24;stroke-width:0.28349999;stroke-linecap:round;stroke-linejoin:round;stroke-miterlimit:10" />
	
		<path
   display="inline"
   stroke-miterlimit="10"
   d="m 58.528,135.114 c 0,5.145 4.171,9.315 9.315,9.315 5.144,0 9.314,-4.171 9.314,-9.315 0,-5.144 -4.17,-9.315 -9.314,-9.315 -5.144,0 -9.315,4.171 -9.315,9.315"
   id="path248"
   inkscape:connector-curvature="0"
   style="display:inline;fill:none;stroke:#ec1c24;stroke-width:0.28349999;stroke-linecap:round;stroke-linejoin:round;stroke-miterlimit:10" />
	
		<path
   display="inline"
   stroke-miterlimit="10"
   d="m 58.528,172.671 c 0,5.144 4.171,9.315 9.315,9.315 5.144,0 9.314,-4.171 9.314,-9.315 0,-5.145 -4.17,-9.315 -9.314,-9.315 -5.144,0 -9.315,4.171 -9.315,9.315"
   id="path250"
   inkscape:connector-curvature="0"
   style="display:inline;fill:none;stroke:#ec1c24;stroke-width:0.28349999;stroke-linecap:round;stroke-linejoin:round;stroke-miterlimit:10" />
	
		<path
   display="inline"
   stroke-miterlimit="10"
   d="m 39.927,172.701 c 0,2.449 1.985,4.435 4.436,4.435 2.451,0 4.436,-1.985 4.436,-4.435 0,-2.45 -1.985,-4.436 -4.436,-4.436 -2.45,0 -4.436,1.986 -4.436,4.436"
   id="path252"
   inkscape:connector-curvature="0"
   style="display:inline;fill:none;stroke:#ec1c24;stroke-width:0.28349999;stroke-linecap:round;stroke-linejoin:round;stroke-miterlimit:10" />
	
		<path
   display="inline"
   stroke-miterlimit="10"
   d="m 33.288,84.413 c 0,6.124 4.966,11.09 11.091,11.09 6.124,0 11.089,-4.966 11.089,-11.09 0,-6.125 -4.966,-11.089 -11.089,-11.089 -6.126,0 -11.091,4.965 -11.091,11.089"
   id="path254"
   inkscape:connector-curvature="0"
   style="display:inline;fill:none;stroke:#ec1c24;stroke-width:0.28349999;stroke-linecap:round;stroke-linejoin:round;stroke-miterlimit:10" />
	
		<path
   display="inline"
   stroke-miterlimit="10"
   d="m 68.761,65.621 c 0,4.164 3.376,7.541 7.541,7.541 4.165,0 7.541,-3.377 7.541,-7.541 0,-4.165 -3.376,-7.54 -7.541,-7.54 -4.165,0 -7.541,3.375 -7.541,7.54"
   id="path256"
   inkscape:connector-curvature="0"
   style="display:inline;fill:none;stroke:#ec1c24;stroke-width:0.28349999;stroke-linecap:round;stroke-linejoin:round;stroke-miterlimit:10" />
	
		<path
   display="inline"
   stroke-miterlimit="10"
   d="m 68.761,221.495 c 0,4.164 3.376,7.541 7.541,7.541 4.165,0 7.541,-3.377 7.541,-7.541 0,-4.165 -3.376,-7.541 -7.541,-7.541 -4.165,0 -7.541,3.376 -7.541,7.541"
   id="path258"
   inkscape:connector-curvature="0"
   style="display:inline;fill:none;stroke:#ec1c24;stroke-width:0.28349999;stroke-linecap:round;stroke-linejoin:round;stroke-miterlimit:10" />
</g>
<g
   id="widgets"
   display="none"
   style="display:none">
	
		<rect
   id="Rogan_3_"
   x="24.864"
   y="64.416"
   display="inline"
   stroke-miterlimit="10"
   width="38.987"
   height="39.994999"
   style="display:inline;fill:none;stroke:#000000;stroke-miterlimit:10" />
	
		<rect
   id="SmallLight_4_"
   x="40.863998"
   y="169.201"
   display="inline"
   stroke-miterlimit="10"
   width="7"
   height="7"
   style="display:inline;fill:none;stroke:#000000;stroke-miterlimit:10" />
	
		<rect
   id="PJ301_2_"
   x="56.348"
   y="161.202"
   display="inline"
   stroke-miterlimit="10"
   width="22.992001"
   height="22.996"
   style="display:inline;fill:none;stroke:#000000;stroke-miterlimit:10" />
	
		<rect
   id="PJ301_3_"
   x="56.348"
   y="123.616"
   display="inline"
   stroke-miterlimit="10"
   width="22.992001"
   height="22.996"
   style="display:inline;fill:none;stroke:#000000;stroke-miterlimit:10" />
	
		<rect
   id="PJ301_1_"
   x="9.5550003"
   y="161.202"
   display="inline"
   stroke-miterlimit="10"
   width="22.992001"
   height="22.996"
   style="display:inline;fill:none;stroke:#000000;stroke-miterlimit:10" />
	
		<rect
   id="PJ301_11_"
   x="9.5550003"
   y="123.616"
   display="inline"
   stroke-miterlimit="10"
   width="22.992001"
   height="22.996"
   style="display:inline;fill:none;stroke:#000000;stroke-miterlimit:10" />
	
		<rect
   id="TL1105_1_"
   x="68.302002"
   y="57.608002"
   display="inline"
   stroke-miterlimit="10"
   width="16"
   height="15.998"
   style="display:inline;fill:none;stroke:#000000;stroke-miterlimit:10" />
	
		<rect
   id="Rogan_1_"
   x="24.864"
   y="220.24899"
   display="inline"
   stroke-miterlimit="10"
   width="38.987"
   height="39.995998"
   style="display:inline;fill:none;stroke:#000000;stroke-miterlimit:10" />
	
		<rect
   id="SmallLight_1_"
   x="40.863998"
   y="325.034"
   display="inline"
   stroke-miterlimit="10"
   width="7"
   height="7"
   style="display:inline;fill:none;stroke:#000000;stroke-miterlimit:10" />
	
		<rect
   id="PJ301_7_"
   x="56.348"
   y="317.03601"
   display="inline"
   stroke-miterlimit="10"
   width="22.992001"
   height="22.996"
   style="display:inline;fill:none;stroke:#000000;stroke-miterlimit:10" />
	
		<rect
   id="PJ301_6_"
   x="56.348"
   y="279.45001"
   display="inline"
   stroke-miterlimit="10"
   width="22.992001"
   height="22.996"
   style="display:inline;fill:none;stroke:#000000;stroke-miterlimit:10" />
	
		<rect
   id="PJ301_5_"
   x="9.5550003"
   y="317.03601"
   display="inline"
   stroke-miterlimit="10"
   width="22.992001"
   height="22.996"
   style="display:inline;fill:none;stroke:#000000;stroke-miterlimit:10" />
	
		<rect
   id="PJ301_4_"
   x="9.5550003"
   y="279.45001"
   display="inline"
   stroke-miterlimit="10"
   width="22.992001"
   height="22.996"
   style="display:inline;fill:none;stroke:#000000;stroke-miterlimit:10" />
	
		<rect
   id="TL1105_2_"
   x="68.302002"
   y="213.442"
   display="inline"
   stroke-miterlimit="10"
   width="16"
   height="15.998"
   style="display:inline;fill:none;stroke:#000000;stroke-miterlimit:10" />
</g><g
   inkscape:groupmode="layer"
   id="layer4"
   inkscape:label="UI"
   style="display:inline;opacity:1" />
</svg>